<?xml version="1.0" encoding="UTF-8"?>
<!DOCTYPE svg PUBLIC "-//W3C//DTD SVG 1.1//EN" "http://www.w3.org/Graphics/SVG/1.1/DTD/svg11.dtd">
<svg xmlns="http://www.w3.org/2000/svg" version="1.1" width="222px" height="95px" style="shape-rendering:geometricPrecision; text-rendering:geometricPrecision; image-rendering:optimizeQuality; fill-rule:evenodd; clip-rule:evenodd" xmlns:xlink="http://www.w3.org/1999/xlink">
<g><path style="opacity:1" fill="#0b2e46" d="M 36.5,-0.5 C 37.1667,-0.5 37.8333,-0.5 38.5,-0.5C 40.9717,0.642067 41.9717,2.64207 41.5,5.5C 47.4151,5.1199 53.0818,6.1199 58.5,8.5C 59.3857,7.67504 59.719,6.67504 59.5,5.5C 62.2282,5.17057 64.5615,5.83724 66.5,7.5C 65.1667,7.5 63.8333,7.5 62.5,7.5C 62.5,8.83333 62.5,10.1667 62.5,11.5C 61.4489,12.2223 60.7822,13.2223 60.5,14.5C 60.1667,14.5 59.8333,14.5 59.5,14.5C 58.791,13.596 57.791,13.2627 56.5,13.5C 56.5172,15.5648 56.8505,17.5648 57.5,19.5C 56.2876,18.7701 55.2876,17.7701 54.5,16.5C 52.694,17.8587 51.194,17.5254 50,15.5C 49.5357,16.0944 49.369,16.7611 49.5,17.5C 49.5,18.1667 49.5,18.8333 49.5,19.5C 50.7946,21.3717 50.6279,23.0383 49,24.5C 47.951,22.8934 46.451,22.2267 44.5,22.5C 43.1667,21.5 41.8333,20.5 40.5,19.5C 39.0383,15.2981 40.0383,14.6315 43.5,17.5C 46.1531,15.855 48.4865,13.855 50.5,11.5C 51.3857,12.325 51.719,13.325 51.5,14.5C 52.5,14.5 53.5,14.5 54.5,14.5C 55.0768,11.4503 53.9101,9.45025 51,8.5C 50.6667,9.16667 50.3333,9.83333 50,10.5C 44.9462,10.2403 41.4462,7.90698 39.5,3.5C 38.779,1.61818 37.779,1.28485 36.5,2.5C 35.9569,2.55999 35.6236,2.89333 35.5,3.5C 36.1569,26.6275 36.8236,49.6275 37.5,72.5C 38.4872,67.6946 38.8205,62.6946 38.5,57.5C 38.8333,57.5 39.1667,57.5 39.5,57.5C 39.5,58.5 39.5,59.5 39.5,60.5C 39.5,63.5 39.5,66.5 39.5,69.5C 39.2627,70.791 39.596,71.791 40.5,72.5C 45.1173,79.3564 51.4506,81.3564 59.5,78.5C 59.1667,79.1667 58.8333,79.8333 58.5,80.5C 55.544,81.1371 52.544,81.6371 49.5,82C 50.056,82.3826 50.3893,82.8826 50.5,83.5C 49.209,83.2627 48.209,83.596 47.5,84.5C 47.1667,84.5 46.8333,84.5 46.5,84.5C 46.1667,83.8333 45.8333,83.1667 45.5,82.5C 46.4387,81.6726 46.1054,81.0059 44.5,80.5C 43.3303,78.7215 41.6636,77.7215 39.5,77.5C 39.5,76.1667 39.5,74.8333 39.5,73.5C 38.209,73.2627 37.209,73.596 36.5,74.5C 36.5,75.5 36.5,76.5 36.5,77.5C 33.9228,77.4551 31.9228,78.4551 30.5,80.5C 29.8333,80.5 29.5,80.8333 29.5,81.5C 27.7163,82.7199 26.0496,82.7199 24.5,81.5C 25.791,81.7373 26.791,81.404 27.5,80.5C 28.8333,78.8333 30.1667,77.1667 31.5,75.5C 32.5,75.5 33.5,75.5 34.5,75.5C 35.5511,72.3442 35.5511,69.3442 34.5,66.5C 33.8333,66.5 33.5,66.1667 33.5,65.5C 35.3786,65.6068 35.7119,65.1068 34.5,64C 30.1794,63.501 25.8461,63.3343 21.5,63.5C 21.5,63.1667 21.5,62.8333 21.5,62.5C 22.3764,62.6309 23.0431,62.2975 23.5,61.5C 22.9149,58.4973 22.2482,55.4973 21.5,52.5C 20.8165,52.1373 20.1499,51.8039 19.5,51.5C 19.6509,48.2819 20.4842,47.9485 22,50.5C 22.6924,49.9747 23.1924,49.3081 23.5,48.5C 22.452,47.452 21.452,46.452 20.5,45.5C 20.5,45.1667 20.5,44.8333 20.5,44.5C 20.3379,42.4727 20.5045,40.4727 21,38.5C 21.0496,40.744 21.8829,42.4107 23.5,43.5C 23.81,44.7383 24.31,44.7383 25,43.5C 26.128,41.6547 26.628,39.6547 26.5,37.5C 26.8333,37.5 27.1667,37.5 27.5,37.5C 29.7933,35.3875 32.2933,33.3875 35,31.5C 35.4828,30.552 35.6495,29.552 35.5,28.5C 35.5,25.5 35.5,22.5 35.5,19.5C 32.6627,17.5977 29.3293,16.931 25.5,17.5C 23.0139,16.4239 20.6805,15.0906 18.5,13.5C 23.2657,9.89825 28.599,7.23159 34.5,5.5C 33.4181,2.98242 34.0848,0.982422 36.5,-0.5 Z"/></g>
<g><path style="opacity:1" fill="#d1dadb" d="M 30.5,11.5 C 32.7602,12.2376 32.9269,13.2376 31,14.5C 29.2716,13.6477 29.105,12.6477 30.5,11.5 Z"/></g>
<g><path style="opacity:1" fill="#55c9e8" d="M 73.5,18.5 C 68.3529,19.3369 64.0195,18.0036 60.5,14.5C 60.7822,13.2223 61.4489,12.2223 62.5,11.5C 63.1577,10.6016 63.8243,9.60164 64.5,8.5C 65.9488,10.6106 66.9488,12.9439 67.5,15.5C 69.8822,17.0707 72.5488,17.904 75.5,18C 74.9056,18.4643 74.2389,18.631 73.5,18.5 Z"/></g>
<g><path style="opacity:1" fill="#d5e0d7" d="M 19.5,18.5 C 21.2646,17.5386 23.2646,17.2053 25.5,17.5C 29.3293,16.931 32.6627,17.5977 35.5,19.5C 33.9317,18.5269 32.265,18.3603 30.5,19C 31.9597,19.8113 32.293,20.6446 31.5,21.5C 27.9104,19.0307 23.9104,18.0307 19.5,18.5 Z"/></g>
<g><path style="opacity:0.948" fill="#113348" d="M 39.5,3.5 C 41.4462,7.90698 44.9462,10.2403 50,10.5C 50.3333,9.83333 50.6667,9.16667 51,8.5C 53.9101,9.45025 55.0768,11.4503 54.5,14.5C 53.5,14.5 52.5,14.5 51.5,14.5C 51.719,13.325 51.3857,12.325 50.5,11.5C 48.4865,13.855 46.1531,15.855 43.5,17.5C 40.0383,14.6315 39.0383,15.2981 40.5,19.5C 39.6618,19.8417 39.3284,20.5084 39.5,21.5C 39.5,23.8333 39.5,26.1667 39.5,28.5C 41.7354,28.7947 43.7354,28.4614 45.5,27.5C 46.0431,27.44 46.3764,27.1067 46.5,26.5C 45.8201,25.1401 45.1534,23.8068 44.5,22.5C 46.451,22.2267 47.951,22.8934 49,24.5C 50.6279,23.0383 50.7946,21.3717 49.5,19.5C 50.8333,18.8333 50.8333,18.1667 49.5,17.5C 49.369,16.7611 49.5357,16.0944 50,15.5C 51.194,17.5254 52.694,17.8587 54.5,16.5C 55.2876,17.7701 56.2876,18.7701 57.5,19.5C 58.5511,20.2223 59.2178,21.2223 59.5,22.5C 53.8682,20.4573 50.8682,22.4573 50.5,28.5C 53.5468,29.1446 55.7135,28.1446 57,25.5C 58.5526,30.5278 59.7193,30.1945 60.5,24.5C 61.1667,25.5 61.8333,26.5 62.5,27.5C 61.5876,28.7382 61.4209,30.0715 62,31.5C 63.9734,32.6399 65.8067,33.9733 67.5,35.5C 68.1681,33.0312 68.8347,30.6979 69.5,28.5C 70.3171,30.9686 70.8171,33.6353 71,36.5C 71.2784,35.5842 71.7784,34.9175 72.5,34.5C 72.2627,35.791 72.596,36.791 73.5,37.5C 72.4923,39.3386 70.9923,40.6719 69,41.5C 65.3236,36.5812 60.4903,33.5812 54.5,32.5C 50.0189,31.3516 45.3522,31.1849 40.5,32C 39.944,32.3826 39.6107,32.8826 39.5,33.5C 39.5,34.1667 39.5,34.8333 39.5,35.5C 39.5,36.5 39.5,37.5 39.5,38.5C 39.5,41.1667 39.5,43.8333 39.5,46.5C 39.5,48.1667 39.5,49.8333 39.5,51.5C 39.5,51.8333 39.5,52.1667 39.5,52.5C 39.5,54.1667 39.5,55.8333 39.5,57.5C 39.1667,57.5 38.8333,57.5 38.5,57.5C 38.1807,39.4234 38.514,21.4234 39.5,3.5 Z"/></g>
<g><path style="opacity:1" fill="#7f978d" d="M 19.5,18.5 C 21.8682,19.783 24.0349,21.4497 26,23.5C 26.6667,24.1667 26.6667,24.8333 26,25.5C 22.6727,22.8461 18.8394,21.8461 14.5,22.5C 15.8726,20.7935 17.5393,19.4602 19.5,18.5 Z"/></g>
<g><path style="opacity:1" fill="#1179ad" d="M 36.5,2.5 C 37.4892,25.7584 37.8226,49.0918 37.5,72.5C 36.8236,49.6275 36.1569,26.6275 35.5,3.5C 35.6236,2.89333 35.9569,2.55999 36.5,2.5 Z"/></g>
<g><path style="opacity:1" fill="#d9e3d9" d="M 40.5,19.5 C 41.8333,20.5 43.1667,21.5 44.5,22.5C 45.1534,23.8068 45.8201,25.1401 46.5,26.5C 46.3764,27.1067 46.0431,27.44 45.5,27.5C 44.4778,24.4777 42.4778,22.4777 39.5,21.5C 39.3284,20.5084 39.6618,19.8417 40.5,19.5 Z"/></g>
<g><path style="opacity:0.978" fill="#12344c" d="M 66.5,7.5 C 68.8289,9.49776 71.1623,11.4978 73.5,13.5C 75.8275,14.724 78.1608,14.724 80.5,13.5C 81.3081,13.8076 81.9747,14.3076 82.5,15C 80.316,17.0165 78.316,19.1831 76.5,21.5C 77.1925,22.5178 77.8592,23.5178 78.5,24.5C 78.1731,28.6929 79.1731,32.5263 81.5,36C 81.101,37.7275 80.4343,39.2275 79.5,40.5C 79.5654,40.0618 79.3988,39.7284 79,39.5C 78,40.5 77,41.5 76,42.5C 75.6012,42.2716 75.4346,41.9382 75.5,41.5C 76.6005,40.3951 77.2671,39.0618 77.5,37.5C 78.4124,36.2618 78.5791,34.9285 78,33.5C 76.6288,35.0414 75.1288,36.3747 73.5,37.5C 72.596,36.791 72.2627,35.791 72.5,34.5C 73.6688,29.3421 71.6688,26.3421 66.5,25.5C 64.9623,25.4534 63.9623,26.1201 63.5,27.5C 63.1667,27.5 62.8333,27.5 62.5,27.5C 61.8333,26.5 61.1667,25.5 60.5,24.5C 60.1667,23.8333 59.8333,23.1667 59.5,22.5C 59.2178,21.2223 58.5511,20.2223 57.5,19.5C 56.8505,17.5648 56.5172,15.5648 56.5,13.5C 57.791,13.2627 58.791,13.596 59.5,14.5C 58.7611,14.369 58.0944,14.5357 57.5,15C 60.1667,16.3333 62.1667,18.3333 63.5,21C 66.5541,21.8214 69.5541,21.6548 72.5,20.5C 72.8627,19.8165 73.1961,19.1499 73.5,18.5C 74.2389,18.631 74.9056,18.4643 75.5,18C 72.5488,17.904 69.8822,17.0707 67.5,15.5C 66.9488,12.9439 65.9488,10.6106 64.5,8.5C 63.8243,9.60164 63.1577,10.6016 62.5,11.5C 62.5,10.1667 62.5,8.83333 62.5,7.5C 63.8333,7.5 65.1667,7.5 66.5,7.5 Z"/></g>
<g><path style="opacity:1" fill="#169bd9" d="M 59.5,14.5 C 59.8333,14.5 60.1667,14.5 60.5,14.5C 64.0195,18.0036 68.3529,19.3369 73.5,18.5C 73.1961,19.1499 72.8627,19.8165 72.5,20.5C 69.5541,21.6548 66.5541,21.8214 63.5,21C 62.1667,18.3333 60.1667,16.3333 57.5,15C 58.0944,14.5357 58.7611,14.369 59.5,14.5 Z"/></g>
<g><path style="opacity:1" fill="#75b846" d="M 68.5,13.5 C 69.391,14.1098 70.391,14.4431 71.5,14.5C 70.0527,15.8852 69.0527,15.5518 68.5,13.5 Z"/></g>
<g><path style="opacity:1" fill="#b9c9bf" d="M 68.5,13.5 C 69.779,12.2848 70.779,12.6182 71.5,14.5C 70.391,14.4431 69.391,14.1098 68.5,13.5 Z"/></g>
<g><path style="opacity:1" fill="#77d02a" d="M 39.5,21.5 C 42.4778,22.4777 44.4778,24.4777 45.5,27.5C 43.7354,28.4614 41.7354,28.7947 39.5,28.5C 39.5,26.1667 39.5,23.8333 39.5,21.5 Z"/></g>
<g><path style="opacity:1" fill="#6eba3b" d="M 59.5,22.5 C 59.8333,23.1667 60.1667,23.8333 60.5,24.5C 59.7193,30.1945 58.5526,30.5278 57,25.5C 55.7135,28.1446 53.5468,29.1446 50.5,28.5C 50.8682,22.4573 53.8682,20.4573 59.5,22.5 Z"/></g>
<g><path style="opacity:1" fill="#82d92e" d="M 19.5,18.5 C 23.9104,18.0307 27.9104,19.0307 31.5,21.5C 32.293,20.6446 31.9597,19.8113 30.5,19C 32.265,18.3603 33.9317,18.5269 35.5,19.5C 35.5,22.5 35.5,25.5 35.5,28.5C 34.4168,28.5394 33.4168,28.8728 32.5,29.5C 29.1624,20.4508 27.8291,20.4508 28.5,29.5C 27.8333,29.5 27.5,29.1667 27.5,28.5C 26.4341,27.3079 25.6008,27.6412 25,29.5C 22.7265,27.1084 20.5598,27.1084 18.5,29.5C 17.4822,28.8075 16.4822,28.1408 15.5,27.5C 15.1788,25.9519 14.1788,25.2852 12.5,25.5C 12.1667,25.5 11.8333,25.5 11.5,25.5C 12.1667,24.1667 13.1667,23.1667 14.5,22.5C 18.8394,21.8461 22.6727,22.8461 26,25.5C 26.6667,24.8333 26.6667,24.1667 26,23.5C 24.0349,21.4497 21.8682,19.783 19.5,18.5 Z"/></g>
<g><path style="opacity:1" fill="#e6f7d2" d="M 16.5,23.5 C 18.337,23.6395 18.6704,24.3061 17.5,25.5C 16.7025,25.0431 16.3691,24.3764 16.5,23.5 Z"/></g>
<g><path style="opacity:1" fill="#e4f5d3" d="M 12.5,25.5 C 14.1788,25.2852 15.1788,25.9519 15.5,27.5C 13.6322,28.6736 12.6322,28.0069 12.5,25.5 Z"/></g>
<g><path style="opacity:1" fill="#b7d0ae" d="M 72.5,34.5 C 71.7784,34.9175 71.2784,35.5842 71,36.5C 70.8171,33.6353 70.3171,30.9686 69.5,28.5C 67.842,26.3464 65.842,26.0131 63.5,27.5C 63.9623,26.1201 64.9623,25.4534 66.5,25.5C 71.6688,26.3421 73.6688,29.3421 72.5,34.5 Z"/></g>
<g><path style="opacity:1" fill="#49bc10" d="M 11.5,25.5 C 11.8333,25.5 12.1667,25.5 12.5,25.5C 12.6322,28.0069 13.6322,28.6736 15.5,27.5C 16.4822,28.1408 17.4822,28.8075 18.5,29.5C 20.5598,27.1084 22.7265,27.1084 25,29.5C 25.6008,27.6412 26.4341,27.3079 27.5,28.5C 26.6909,30.2922 26.1909,32.2922 26,34.5C 25.3109,35.3567 24.4776,36.0233 23.5,36.5C 21.5784,34.9969 20.4117,32.9969 20,30.5C 19.6121,31.428 18.9454,32.0946 18,32.5C 15.4838,31.2272 12.9838,31.2272 10.5,32.5C 9.57131,31.3112 9.23798,29.9778 9.5,28.5C 9.42702,26.9731 10.0937,25.9731 11.5,25.5 Z"/></g>
<g><path style="opacity:1" fill="#44ba10" d="M 35.5,28.5 C 35.6495,29.552 35.4828,30.552 35,31.5C 32.2933,33.3875 29.7933,35.3875 27.5,37.5C 28.0916,34.8728 28.4249,32.2062 28.5,29.5C 27.8291,20.4508 29.1624,20.4508 32.5,29.5C 33.4168,28.8728 34.4168,28.5394 35.5,28.5 Z"/></g>
<g><path style="opacity:1" fill="#cee9ec" d="M 54.5,32.5 C 49.4376,32.2743 44.4376,32.6076 39.5,33.5C 39.6107,32.8826 39.944,32.3826 40.5,32C 45.3522,31.1849 50.0189,31.3516 54.5,32.5 Z"/></g>
<g><path style="opacity:1" fill="#60c327" d="M 69.5,28.5 C 68.8347,30.6979 68.1681,33.0312 67.5,35.5C 65.8067,33.9733 63.9734,32.6399 62,31.5C 61.4209,30.0715 61.5876,28.7382 62.5,27.5C 62.8333,27.5 63.1667,27.5 63.5,27.5C 65.842,26.0131 67.842,26.3464 69.5,28.5 Z"/></g>
<g><path style="opacity:0.729" fill="#f2f8e9" d="M 92.5,31.5 C 110.57,28.7313 117.736,36.0646 114,53.5C 113.07,55.5524 111.57,57.0524 109.5,58C 103.928,59.3507 98.2617,59.8507 92.5,59.5C 92.5,50.1667 92.5,40.8333 92.5,31.5 Z M 98.5,36.5 C 108.157,35.6577 111.99,39.9911 110,49.5C 107.575,54.0628 103.742,55.7294 98.5,54.5C 98.5,48.5 98.5,42.5 98.5,36.5 Z"/></g>
<g><path style="opacity:0.801" fill="#f2f9e9" d="M 151.5,31.5 C 157.5,31.5 163.5,31.5 169.5,31.5C 169.5,33.1667 169.5,34.8333 169.5,36.5C 165.167,36.5 160.833,36.5 156.5,36.5C 156.5,38.8333 156.5,41.1667 156.5,43.5C 160.5,43.5 164.5,43.5 168.5,43.5C 168.5,44.8333 168.5,46.1667 168.5,47.5C 164.5,47.5 160.5,47.5 156.5,47.5C 156.5,49.8333 156.5,52.1667 156.5,54.5C 160.833,54.5 165.167,54.5 169.5,54.5C 169.5,56.1667 169.5,57.8333 169.5,59.5C 163.5,59.5 157.5,59.5 151.5,59.5C 151.5,50.1667 151.5,40.8333 151.5,31.5 Z"/></g>
<g><path style="opacity:0.794" fill="#f2f9e9" d="M 195.5,31.5 C 195.5,31.8333 195.5,32.1667 195.5,32.5C 195.5,41.5 195.5,50.5 195.5,59.5C 193.396,59.7989 191.396,59.4656 189.5,58.5C 185.86,53.0272 182.027,47.6938 178,42.5C 177.501,48.1569 177.334,53.8236 177.5,59.5C 175.5,59.5 173.5,59.5 171.5,59.5C 171.5,50.1667 171.5,40.8333 171.5,31.5C 173.604,31.2011 175.604,31.5344 177.5,32.5C 181.529,38.03 185.362,43.6967 189,49.5C 189.499,43.5092 189.666,37.5092 189.5,31.5C 191.5,31.5 193.5,31.5 195.5,31.5 Z"/></g>
<g><path style="opacity:0.725" fill="#f2f9e9" d="M 195.5,32.5 C 195.5,32.1667 195.5,31.8333 195.5,31.5C 197.792,31.2436 199.959,31.5769 202,32.5C 204.333,38.8333 206.667,45.1667 209,51.5C 211.278,44.8349 213.444,38.1683 215.5,31.5C 217.5,31.5 219.5,31.5 221.5,31.5C 221.5,32.1667 221.5,32.8333 221.5,33.5C 217.722,41.8308 214.722,50.4975 212.5,59.5C 210.076,59.8076 207.743,59.4742 205.5,58.5C 202.335,49.6558 199.001,40.9892 195.5,32.5 Z"/></g>
<g><path style="opacity:1" fill="#1d3e44" d="M 9.5,28.5 C 9.23798,29.9778 9.57131,31.3112 10.5,32.5C 12.9838,31.2272 15.4838,31.2272 18,32.5C 18.9454,32.0946 19.6121,31.428 20,30.5C 20.4117,32.9969 21.5784,34.9969 23.5,36.5C 24.4776,36.0233 25.3109,35.3567 26,34.5C 26.1909,32.2922 26.6909,30.2922 27.5,28.5C 27.5,29.1667 27.8333,29.5 28.5,29.5C 28.4249,32.2062 28.0916,34.8728 27.5,37.5C 27.1667,37.5 26.8333,37.5 26.5,37.5C 25.5041,37.4142 24.6708,37.7476 24,38.5C 23.5065,40.1341 23.3398,41.8008 23.5,43.5C 21.8829,42.4107 21.0496,40.744 21,38.5C 20.5045,40.4727 20.3379,42.4727 20.5,44.5C 18.6714,41.7463 16.0047,40.2463 12.5,40C 14.7695,39.2419 16.9361,39.4086 19,40.5C 19.9411,38.0106 19.4411,36.0106 17.5,34.5C 16.7261,33.8529 15.7261,33.5195 14.5,33.5C 12.6455,33.3402 11.3121,34.0069 10.5,35.5C 8.80584,36.5274 7.4725,37.8608 6.5,39.5C 6.63993,37.8762 5.97326,36.7096 4.5,36C 6.30077,35.6827 6.63411,35.016 5.5,34C 7.10471,32.3152 8.43805,30.4818 9.5,28.5 Z"/></g>
<g><path style="opacity:1" fill="#1ed1ee" d="M 54.5,32.5 C 55.3007,34.0418 55.634,35.7085 55.5,37.5C 51.1263,42.2072 45.793,45.2072 39.5,46.5C 39.5,43.8333 39.5,41.1667 39.5,38.5C 42.2048,38.3802 42.8715,39.3802 41.5,41.5C 44.0282,44.0603 45.6948,43.3936 46.5,39.5C 45.5309,36.0131 43.1976,34.6798 39.5,35.5C 39.5,34.8333 39.5,34.1667 39.5,33.5C 44.4376,32.6076 49.4376,32.2743 54.5,32.5 Z"/></g>
<g><path style="opacity:1" fill="#d4e2d1" d="M 17.5,34.5 C 15.0971,34.448 12.7638,34.7814 10.5,35.5C 11.3121,34.0069 12.6455,33.3402 14.5,33.5C 15.7261,33.5195 16.7261,33.8529 17.5,34.5 Z"/></g>
<g><path style="opacity:0.777" fill="#f2f8e9" d="M 139.5,33.5 C 141.167,33.5 142.833,33.5 144.5,33.5C 144.5,35.1667 144.5,36.8333 144.5,38.5C 145.833,38.5 147.167,38.5 148.5,38.5C 148.5,39.8333 148.5,41.1667 148.5,42.5C 147.167,42.5 145.833,42.5 144.5,42.5C 144.334,46.5138 144.501,50.5138 145,54.5C 147.13,55.1408 148.63,56.4741 149.5,58.5C 145.779,60.1859 142.613,59.5192 140,56.5C 139.501,51.8452 139.334,47.1785 139.5,42.5C 138.5,42.5 137.5,42.5 136.5,42.5C 136.5,41.1667 136.5,39.8333 136.5,38.5C 137.5,38.5 138.5,38.5 139.5,38.5C 139.5,36.8333 139.5,35.1667 139.5,33.5 Z"/></g>
<g><path style="opacity:0.962" fill="#0a2d43" d="M 18.5,13.5 C 20.6805,15.0906 23.0139,16.4239 25.5,17.5C 23.2646,17.2053 21.2646,17.5386 19.5,18.5C 17.5393,19.4602 15.8726,20.7935 14.5,22.5C 13.1667,23.1667 12.1667,24.1667 11.5,25.5C 10.0937,25.9731 9.42702,26.9731 9.5,28.5C 8.43805,30.4818 7.10471,32.3152 5.5,34C 6.63411,35.016 6.30077,35.6827 4.5,36C 5.97326,36.7096 6.63993,37.8762 6.5,39.5C 3.13889,43.6261 2.80556,47.9595 5.5,52.5C 5.77128,54.3117 6.43795,55.9783 7.5,57.5C 13.6902,56.0105 14.0235,57.0105 8.5,60.5C 8.5,61.1667 8.5,61.8333 8.5,62.5C 8.77328,64.451 8.10661,65.951 6.5,67C 8.96427,68.8316 9.96427,70.9983 9.5,73.5C -1.90605,57.3133 -2.40605,40.6467 8,23.5C 10.7111,19.2877 14.2111,15.9544 18.5,13.5 Z"/></g>
<g><path style="opacity:1" fill="#6dd93c" d="M 39.5,35.5 C 43.1976,34.6798 45.5309,36.0131 46.5,39.5C 45.6948,43.3936 44.0282,44.0603 41.5,41.5C 42.8715,39.3802 42.2048,38.3802 39.5,38.5C 39.5,37.5 39.5,36.5 39.5,35.5 Z"/></g>
<g><path style="opacity:0.736" fill="#f2f9e9" d="M 123.5,37.5 C 134.989,37.8162 139.155,43.4829 136,54.5C 135.167,56.6667 133.667,58.1667 131.5,59C 118.72,60.5403 114.22,55.0403 118,42.5C 119.352,40.251 121.185,38.5844 123.5,37.5 Z M 125.5,42.5 C 131.342,44.1995 132.842,47.8662 130,53.5C 127.667,56.1667 125.333,56.1667 123,53.5C 121.221,49.3178 122.054,45.6511 125.5,42.5 Z"/></g>
<g><path style="opacity:1" fill="#0da2de" d="M 35.5,44.5 C 34.5334,48.8 31.8668,51.4667 27.5,52.5C 26.5789,45.6452 29.0789,39.9785 35,35.5C 35.498,38.4816 35.6646,41.4816 35.5,44.5 Z"/></g>
<g><path style="opacity:1" fill="#2d8926" d="M 26.5,37.5 C 26.628,39.6547 26.128,41.6547 25,43.5C 24.31,44.7383 23.81,44.7383 23.5,43.5C 23.3398,41.8008 23.5065,40.1341 24,38.5C 24.6708,37.7476 25.5041,37.4142 26.5,37.5 Z"/></g>
<g><path style="opacity:1" fill="#58bf17" d="M 17.5,34.5 C 19.4411,36.0106 19.9411,38.0106 19,40.5C 16.9361,39.4086 14.7695,39.2419 12.5,40C 16.0047,40.2463 18.6714,41.7463 20.5,44.5C 20.5,44.8333 20.5,45.1667 20.5,45.5C 20.631,46.2389 20.4643,46.9056 20,47.5C 15.1837,43.4861 14.6837,43.8195 18.5,48.5C 16.5868,49.0512 14.5868,49.2179 12.5,49C 14.5852,50.0414 16.2519,51.5414 17.5,53.5C 13.6277,54.9911 10.461,53.9911 8,50.5C 7.83742,52.3867 8.67075,53.8867 10.5,55C 10.1667,55.1667 9.83333,55.3333 9.5,55.5C 8.14819,54.4756 6.81486,53.4756 5.5,52.5C 2.80556,47.9595 3.13889,43.6261 6.5,39.5C 7.4725,37.8608 8.80584,36.5274 10.5,35.5C 12.7638,34.7814 15.0971,34.448 17.5,34.5 Z"/></g>
<g><path style="opacity:1" fill="#54d0ee" d="M 77.5,37.5 C 77.2671,39.0618 76.6005,40.3951 75.5,41.5C 70.5658,45.9208 64.8992,47.9208 58.5,47.5C 65.5824,45.4602 71.9157,42.1269 77.5,37.5 Z"/></g>
<g><path style="opacity:1" fill="#b2d0da" d="M 39.5,3.5 C 38.514,21.4234 38.1807,39.4234 38.5,57.5C 38.8205,62.6946 38.4872,67.6946 37.5,72.5C 37.8226,49.0918 37.4892,25.7584 36.5,2.5C 37.779,1.28485 38.779,1.61818 39.5,3.5 Z"/></g>
<g><path style="opacity:1" fill="#6ed326" d="M 39.5,51.5 C 39.5,49.8333 39.5,48.1667 39.5,46.5C 45.793,45.2072 51.1263,42.2072 55.5,37.5C 57.5914,37.6816 59.5914,37.3482 61.5,36.5C 62.6524,38.8182 64.3191,40.6516 66.5,42C 64.4874,43.2572 62.3207,44.0905 60,44.5C 58.6739,44.2451 57.6739,43.5784 57,42.5C 56.1667,43.3333 55.3333,44.1667 54.5,45C 49.2569,46.7198 44.2569,48.8865 39.5,51.5 Z"/></g>
<g><path style="opacity:1" fill="#e2f1ea" d="M 54.5,32.5 C 60.4903,33.5812 65.3236,36.5812 69,41.5C 70.9923,40.6719 72.4923,39.3386 73.5,37.5C 75.1288,36.3747 76.6288,35.0414 78,33.5C 78.5791,34.9285 78.4124,36.2618 77.5,37.5C 71.9157,42.1269 65.5824,45.4602 58.5,47.5C 64.8992,47.9208 70.5658,45.9208 75.5,41.5C 75.4346,41.9382 75.6012,42.2716 76,42.5C 77,41.5 78,40.5 79,39.5C 79.3988,39.7284 79.5654,40.0618 79.5,40.5C 77.0944,43.9096 74.0944,46.5763 70.5,48.5C 64.6685,50.4572 58.6685,51.4572 52.5,51.5C 50.4534,51.4889 48.4534,51.1556 46.5,50.5C 44.2383,51.4669 41.905,52.1336 39.5,52.5C 39.5,52.1667 39.5,51.8333 39.5,51.5C 44.2569,48.8865 49.2569,46.7198 54.5,45C 55.3333,44.1667 56.1667,43.3333 57,42.5C 57.6739,43.5784 58.6739,44.2451 60,44.5C 62.3207,44.0905 64.4874,43.2572 66.5,42C 64.3191,40.6516 62.6524,38.8182 61.5,36.5C 59.5914,37.3482 57.5914,37.6816 55.5,37.5C 55.634,35.7085 55.3007,34.0418 54.5,32.5 Z"/></g>
<g><path style="opacity:1" fill="#0f3149" d="M 78.5,24.5 C 88.5557,39.3624 89.0557,54.6957 80,70.5C 76.998,74.6681 73.498,78.3348 69.5,81.5C 68.6618,81.1583 68.3284,80.4916 68.5,79.5C 71.3518,78.301 72.1851,76.6343 71,74.5C 67.326,75.4111 64.4927,77.4111 62.5,80.5C 60.5,82.1667 58.5,83.8333 56.5,85.5C 55.1667,85.8333 53.8333,86.1667 52.5,86.5C 52.1667,85.1667 51.8333,85.1667 51.5,86.5C 50.1667,85.8333 48.8333,85.1667 47.5,84.5C 48.209,83.596 49.209,83.2627 50.5,83.5C 53.8934,83.9383 56.8934,83.1049 59.5,81C 59.2716,80.6012 58.9382,80.4346 58.5,80.5C 58.8333,79.8333 59.1667,79.1667 59.5,78.5C 61.48,76.5486 63.8133,75.0486 66.5,74C 61.9899,75.2755 57.3232,75.6089 52.5,75C 55.3979,74.564 57.7312,73.3974 59.5,71.5C 60.5,71.5 61.5,71.5 62.5,71.5C 69.7875,71.5191 75.7875,68.8524 80.5,63.5C 82.7388,61.9988 82.7388,60.6655 80.5,59.5C 82.2108,57.7597 83.0442,55.7597 83,53.5C 81.3308,54.8463 80.1642,56.513 79.5,58.5C 77.236,59.5813 75.0693,60.9146 73,62.5C 73.5317,58.2426 73.5317,53.9092 73,49.5C 72.3292,48.7476 71.4959,48.4142 70.5,48.5C 74.0944,46.5763 77.0944,43.9096 79.5,40.5C 80.4343,39.2275 81.101,37.7275 81.5,36C 79.1731,32.5263 78.1731,28.6929 78.5,24.5 Z"/></g>
<g><path style="opacity:1" fill="#d8dfe1" d="M 78.5,45.5 C 82.6777,47.2321 83.011,49.2321 79.5,51.5C 78.646,50.4783 77.646,49.6449 76.5,49C 77.8228,48.1841 78.4894,47.0174 78.5,45.5 Z"/></g>
<g><path style="opacity:1" fill="#3eb33d" d="M 35.5,44.5 C 35.5,46.8333 35.5,49.1667 35.5,51.5C 32.8427,51.9348 30.5093,52.9348 28.5,54.5C 26.3023,54.5912 25.9689,53.9245 27.5,52.5C 31.8668,51.4667 34.5334,48.8 35.5,44.5 Z"/></g>
<g><path style="opacity:1" fill="#45c128" d="M 52.5,51.5 C 52.4894,53.0174 51.8228,54.1841 50.5,55C 46.7934,55.7373 43.1268,56.5707 39.5,57.5C 39.5,55.8333 39.5,54.1667 39.5,52.5C 41.905,52.1336 44.2383,51.4669 46.5,50.5C 48.4534,51.1556 50.4534,51.4889 52.5,51.5 Z"/></g>
<g><path style="opacity:1" fill="#218cc2" d="M 35.5,51.5 C 35.5,52.5 35.5,53.5 35.5,54.5C 33.7839,54.6287 32.1172,54.962 30.5,55.5C 29.8333,55.1667 29.1667,54.8333 28.5,54.5C 30.5093,52.9348 32.8427,51.9348 35.5,51.5 Z"/></g>
<g><path style="opacity:1" fill="#2cb6e2" d="M 70.5,48.5 C 72.9478,52.982 73.1145,57.6487 71,62.5C 65.6085,65.9435 59.7752,68.4435 53.5,70C 57.7304,69.8206 61.8971,68.9873 66,67.5C 66.5,67.6667 67,67.8333 67.5,68C 65.7669,69.1889 64.1002,70.3556 62.5,71.5C 61.5,71.5 60.5,71.5 59.5,71.5C 55.5,71.5 51.5,71.5 47.5,71.5C 53.4704,69.0646 59.1371,65.898 64.5,62C 64.2716,61.6012 63.9382,61.4346 63.5,61.5C 63.7373,60.209 63.404,59.209 62.5,58.5C 62.631,57.7611 62.4643,57.0944 62,56.5C 61,57.8333 60,57.8333 59,56.5C 57.2228,58.7899 55.0562,60.4566 52.5,61.5C 51.5,61.5 50.5,61.5 49.5,61.5C 51.6107,60.2641 53.6107,58.7641 55.5,57C 52.3791,56.862 49.3791,57.5287 46.5,59C 46.8836,59.9506 47.2169,60.7839 47.5,61.5C 46.3991,62.5983 45.0657,62.765 43.5,62C 44.1667,61.6667 44.8333,61.3333 45.5,61C 43.5273,60.5045 41.5273,60.3379 39.5,60.5C 39.5,59.5 39.5,58.5 39.5,57.5C 43.1268,56.5707 46.7934,55.7373 50.5,55C 51.8228,54.1841 52.4894,53.0174 52.5,51.5C 58.6685,51.4572 64.6685,50.4572 70.5,48.5 Z"/></g>
<g><path style="opacity:1" fill="#379b36" d="M 35.5,54.5 C 35.5,55.1667 35.5,55.8333 35.5,56.5C 34.209,56.2627 33.209,56.596 32.5,57.5C 25.8131,60.5162 25.1464,59.8495 30.5,55.5C 32.1172,54.962 33.7839,54.6287 35.5,54.5 Z"/></g>
<g><path style="opacity:1" fill="#e0f4f7" d="M 49.5,61.5 C 48.8333,61.5 48.1667,61.5 47.5,61.5C 47.2169,60.7839 46.8836,59.9506 46.5,59C 49.3791,57.5287 52.3791,56.862 55.5,57C 53.6107,58.7641 51.6107,60.2641 49.5,61.5 Z"/></g>
<g><path style="opacity:1" fill="#29b653" d="M 62.5,58.5 C 59.7796,59.9421 56.9463,61.2754 54,62.5C 53.2352,62.4301 52.7352,62.0967 52.5,61.5C 55.0562,60.4566 57.2228,58.7899 59,56.5C 60,57.8333 61,57.8333 62,56.5C 62.4643,57.0944 62.631,57.7611 62.5,58.5 Z"/></g>
<g><path style="opacity:1" fill="#7f7d69" d="M 19.5,51.5 C 20.1499,51.8039 20.8165,52.1373 21.5,52.5C 22.2482,55.4973 22.9149,58.4973 23.5,61.5C 23.0431,62.2975 22.3764,62.6309 21.5,62.5C 20.6805,59.6946 20.1805,56.6946 20,53.5C 18.6197,52.7445 18.453,52.0778 19.5,51.5 Z"/></g>
<g><path style="opacity:1" fill="#0b72b4" d="M 35.5,56.5 C 35.5,58.5 35.5,60.5 35.5,62.5C 33.146,62.162 30.8127,61.662 28.5,61C 30.0931,60.0513 31.4264,58.8846 32.5,57.5C 33.209,56.596 34.209,56.2627 35.5,56.5 Z"/></g>
<g><path style="opacity:1" fill="#e2eef0" d="M 70.5,48.5 C 71.4959,48.4142 72.3292,48.7476 73,49.5C 73.5317,53.9092 73.5317,58.2426 73,62.5C 75.0693,60.9146 77.236,59.5813 79.5,58.5C 79.5858,59.4959 79.2524,60.3292 78.5,61C 71.9057,64.6459 72.2391,65.1459 79.5,62.5C 80.1067,62.6236 80.44,62.9569 80.5,63.5C 75.7875,68.8524 69.7875,71.5191 62.5,71.5C 64.1002,70.3556 65.7669,69.1889 67.5,68C 67,67.8333 66.5,67.6667 66,67.5C 61.8971,68.9873 57.7304,69.8206 53.5,70C 59.7752,68.4435 65.6085,65.9435 71,62.5C 73.1145,57.6487 72.9478,52.982 70.5,48.5 Z"/></g>
<g><path style="opacity:1" fill="#79a9bb" d="M 80.5,63.5 C 80.44,62.9569 80.1067,62.6236 79.5,62.5C 72.2391,65.1459 71.9057,64.6459 78.5,61C 79.2524,60.3292 79.5858,59.4959 79.5,58.5C 80.1642,56.513 81.3308,54.8463 83,53.5C 83.0442,55.7597 82.2108,57.7597 80.5,59.5C 82.7388,60.6655 82.7388,61.9988 80.5,63.5 Z"/></g>
<g><path style="opacity:1" fill="#94a5ac" d="M 21.5,63.5 C 25.8461,63.3343 30.1794,63.501 34.5,64C 35.7119,65.1068 35.3786,65.6068 33.5,65.5C 29.8333,65.5 26.1667,65.5 22.5,65.5C 20.3023,65.5912 19.9689,64.9245 21.5,63.5 Z"/></g>
<g><path style="opacity:1" fill="#0c9ad8" d="M 62.5,58.5 C 63.404,59.209 63.7373,60.209 63.5,61.5C 55.9816,65.5617 47.9816,68.2284 39.5,69.5C 39.5,66.5 39.5,63.5 39.5,60.5C 41.5273,60.3379 43.5273,60.5045 45.5,61C 44.8333,61.3333 44.1667,61.6667 43.5,62C 45.0657,62.765 46.3991,62.5983 47.5,61.5C 48.1667,61.5 48.8333,61.5 49.5,61.5C 50.5,61.5 51.5,61.5 52.5,61.5C 52.7352,62.0967 53.2352,62.4301 54,62.5C 56.9463,61.2754 59.7796,59.9421 62.5,58.5 Z"/></g>
<g><path style="opacity:1" fill="#215473" d="M 33.5,65.5 C 33.5,66.1667 33.8333,66.5 34.5,66.5C 33.4731,69.858 31.1398,71.5246 27.5,71.5C 25.7708,70.8825 24.2708,69.8825 23,68.5C 22.9271,71.1576 23.2604,73.8243 24,76.5C 24.66,78.3237 25.8267,79.657 27.5,80.5C 26.791,81.404 25.791,81.7373 24.5,81.5C 23.5041,81.5858 22.6708,81.2524 22,80.5C 19.9891,75.2628 20.1558,70.2628 22.5,65.5C 26.1667,65.5 29.8333,65.5 33.5,65.5 Z"/></g>
<g><path style="opacity:1" fill="#2ec1e7" d="M 24.5,68.5 C 26.9664,67.3659 29.633,67.1993 32.5,68C 29.9543,69.8116 27.2877,69.9783 24.5,68.5 Z"/></g>
<g><path style="opacity:1" fill="#2bae3a" d="M 63.5,61.5 C 63.9382,61.4346 64.2716,61.6012 64.5,62C 59.1371,65.898 53.4704,69.0646 47.5,71.5C 45.1944,71.9926 42.861,72.3259 40.5,72.5C 39.596,71.791 39.2627,70.791 39.5,69.5C 47.9816,68.2284 55.9816,65.5617 63.5,61.5 Z"/></g>
<g><path style="opacity:1" fill="#52b61c" d="M 8.5,60.5 C 10.1667,61.1667 11.8333,61.8333 13.5,62.5C 14.8333,64.5 16.5,66.1667 18.5,67.5C 18.6567,68.8734 18.49,70.2068 18,71.5C 16,68.8333 14,66.1667 12,63.5C 13.2452,67.9714 15.5786,71.9714 19,75.5C 19.6667,76.8333 19.6667,78.1667 19,79.5C 13.0057,75.3199 9.50565,69.6532 8.5,62.5C 8.5,61.8333 8.5,61.1667 8.5,60.5 Z"/></g>
<g><path style="opacity:1" fill="#50c2ea" d="M 34.5,66.5 C 35.5511,69.3442 35.5511,72.3442 34.5,75.5C 33.5,75.5 32.5,75.5 31.5,75.5C 30.5,73.8333 29.1667,72.5 27.5,71.5C 31.1398,71.5246 33.4731,69.858 34.5,66.5 Z"/></g>
<g><path style="opacity:1" fill="#099cdd" d="M 27.5,71.5 C 29.1667,72.5 30.5,73.8333 31.5,75.5C 30.1667,77.1667 28.8333,78.8333 27.5,80.5C 25.8267,79.657 24.66,78.3237 24,76.5C 23.2604,73.8243 22.9271,71.1576 23,68.5C 24.2708,69.8825 25.7708,70.8825 27.5,71.5 Z"/></g>
<g><path style="opacity:1" fill="#0b7abb" d="M 47.5,71.5 C 51.5,71.5 55.5,71.5 59.5,71.5C 57.7312,73.3974 55.3979,74.564 52.5,75C 57.3232,75.6089 61.9899,75.2755 66.5,74C 63.8133,75.0486 61.48,76.5486 59.5,78.5C 51.4506,81.3564 45.1173,79.3564 40.5,72.5C 42.861,72.3259 45.1944,71.9926 47.5,71.5 Z"/></g>
<g><path style="opacity:1" fill="#5bbd23" d="M 36.5,74.5 C 39.1667,75.5 39.1667,76.5 36.5,77.5C 36.5,76.5 36.5,75.5 36.5,74.5 Z"/></g>
<g><path style="opacity:1" fill="#8ea1a1" d="M 36.5,74.5 C 37.209,73.596 38.209,73.2627 39.5,73.5C 39.5,74.8333 39.5,76.1667 39.5,77.5C 41.6636,77.7215 43.3303,78.7215 44.5,80.5C 39.8333,80.5 35.1667,80.5 30.5,80.5C 31.9228,78.4551 33.9228,77.4551 36.5,77.5C 39.1667,76.5 39.1667,75.5 36.5,74.5 Z"/></g>
<g><path style="opacity:1" fill="#58b531" d="M 68.5,79.5 C 66.6381,81.4748 64.6381,81.8081 62.5,80.5C 64.4927,77.4111 67.326,75.4111 71,74.5C 72.1851,76.6343 71.3518,78.301 68.5,79.5 Z"/></g>
<g><path style="opacity:0.514" fill="#0f3142" d="M 20.5,45.5 C 21.452,46.452 22.452,47.452 23.5,48.5C 23.1924,49.3081 22.6924,49.9747 22,50.5C 20.4842,47.9485 19.6509,48.2819 19.5,51.5C 18.453,52.0778 18.6197,52.7445 20,53.5C 20.1805,56.6946 20.6805,59.6946 21.5,62.5C 21.5,62.8333 21.5,63.1667 21.5,63.5C 19.9689,64.9245 20.3023,65.5912 22.5,65.5C 20.1558,70.2628 19.9891,75.2628 22,80.5C 22.6708,81.2524 23.5041,81.5858 24.5,81.5C 26.0496,82.7199 27.7163,82.7199 29.5,81.5C 34.6405,82.4881 39.9738,82.8214 45.5,82.5C 45.8333,83.1667 46.1667,83.8333 46.5,84.5C 44.9719,84.5173 44.4719,85.184 45,86.5C 46.126,87.9436 47.626,88.6102 49.5,88.5C 52.3598,88.445 54.6931,87.445 56.5,85.5C 58.5,83.8333 60.5,82.1667 62.5,80.5C 64.6381,81.8081 66.6381,81.4748 68.5,79.5C 68.3284,80.4916 68.6618,81.1583 69.5,81.5C 68.4264,82.8846 67.0931,84.0513 65.5,85C 59.5011,87.8429 53.5011,90.3429 47.5,92.5C 45.8212,92.2852 44.8212,92.9519 44.5,94.5C 44.1667,94.5 43.8333,94.5 43.5,94.5C 42.4523,92.0673 41.7856,92.0673 41.5,94.5C 41.1667,94.5 40.8333,94.5 40.5,94.5C 39.4523,92.0673 38.7856,92.0673 38.5,94.5C 37.8333,94.5 37.1667,94.5 36.5,94.5C 36.2144,92.0673 35.5477,92.0673 34.5,94.5C 34.1667,94.5 33.8333,94.5 33.5,94.5C 33.2144,92.0673 32.5477,92.0673 31.5,94.5C 31.1667,94.5 30.8333,94.5 30.5,94.5C 30.6716,93.5084 30.3382,92.8417 29.5,92.5C 26.894,91.1501 26.894,89.6501 29.5,88C 21.1299,85.3336 14.4632,80.5002 9.5,73.5C 9.96427,70.9983 8.96427,68.8316 6.5,67C 8.10661,65.951 8.77328,64.451 8.5,62.5C 9.50565,69.6532 13.0057,75.3199 19,79.5C 19.6667,78.1667 19.6667,76.8333 19,75.5C 15.5786,71.9714 13.2452,67.9714 12,63.5C 14,66.1667 16,68.8333 18,71.5C 18.49,70.2068 18.6567,68.8734 18.5,67.5C 17.8333,64.8333 16.1667,63.1667 13.5,62.5C 11.8333,61.8333 10.1667,61.1667 8.5,60.5C 14.0235,57.0105 13.6902,56.0105 7.5,57.5C 6.43795,55.9783 5.77128,54.3117 5.5,52.5C 6.81486,53.4756 8.14819,54.4756 9.5,55.5C 9.83333,55.3333 10.1667,55.1667 10.5,55C 8.67075,53.8867 7.83742,52.3867 8,50.5C 10.461,53.9911 13.6277,54.9911 17.5,53.5C 16.2519,51.5414 14.5852,50.0414 12.5,49C 14.5868,49.2179 16.5868,49.0512 18.5,48.5C 14.6837,43.8195 15.1837,43.4861 20,47.5C 20.4643,46.9056 20.631,46.2389 20.5,45.5 Z"/></g>
<g><path style="opacity:1" fill="#396d3d" d="M 39.5,83.5 C 42.7756,84.1216 44.1089,86.1216 43.5,89.5C 41.5328,89.2606 39.6995,89.5939 38,90.5C 37.185,87.8018 37.685,85.4685 39.5,83.5 Z"/></g>
<g><path style="opacity:1" fill="#2c6540" d="M 32.5,84.5 C 33.8333,84.5 35.1667,84.5 36.5,84.5C 36.6621,86.5273 36.4955,88.5273 36,90.5C 34.6667,86.5 33.3333,86.5 32,90.5C 31.3224,88.4024 31.4891,86.4024 32.5,84.5 Z"/></g>
<g><path style="opacity:0.984" fill="#33a615" d="M 46.5,84.5 C 46.8333,84.5 47.1667,84.5 47.5,84.5C 48.8333,85.1667 50.1667,85.8333 51.5,86.5C 51.8333,86.5 52.1667,86.5 52.5,86.5C 53.8333,86.1667 55.1667,85.8333 56.5,85.5C 54.6931,87.445 52.3598,88.445 49.5,88.5C 47.626,88.6102 46.126,87.9436 45,86.5C 44.4719,85.184 44.9719,84.5173 46.5,84.5 Z"/></g>
<g><path style="opacity:1" fill="#b3bec3" d="M 58.5,80.5 C 58.9382,80.4346 59.2716,80.6012 59.5,81C 56.8934,83.1049 53.8934,83.9383 50.5,83.5C 50.3893,82.8826 50.056,82.3826 49.5,82C 52.544,81.6371 55.544,81.1371 58.5,80.5 Z"/></g>
<g><path style="opacity:1" fill="#5ab127" d="M 30.5,80.5 C 35.1667,80.5 39.8333,80.5 44.5,80.5C 46.1054,81.0059 46.4387,81.6726 45.5,82.5C 39.9738,82.8214 34.6405,82.4881 29.5,81.5C 29.5,80.8333 29.8333,80.5 30.5,80.5 Z"/></g>
<g><path style="opacity:1" fill="#bed0bc" d="M 13.5,62.5 C 16.1667,63.1667 17.8333,64.8333 18.5,67.5C 16.5,66.1667 14.8333,64.5 13.5,62.5 Z"/></g>
<g><path style="opacity:0.255" fill="#088ac2" d="M 16.5,94.5 C 15.1667,94.5 13.8333,94.5 12.5,94.5C 12.62,93.4138 13.2867,92.7472 14.5,92.5C 15.7133,92.7472 16.38,93.4138 16.5,94.5 Z"/></g>
<g><path style="opacity:0.635" fill="#069bdb" d="M 47.5,92.5 C 53.5982,91.8833 59.2649,92.55 64.5,94.5C 57.8333,94.5 51.1667,94.5 44.5,94.5C 44.8212,92.9519 45.8212,92.2852 47.5,92.5 Z"/></g>
<g><path style="opacity:0.152" fill="#0597d6" d="M 29.5,92.5 C 30.3382,92.8417 30.6716,93.5084 30.5,94.5C 26.1667,94.5 21.8333,94.5 17.5,94.5C 21.0293,92.5772 25.0293,91.9106 29.5,92.5 Z"/></g>
<g><path style="opacity:0.012" fill="#068dc6" d="M 67.5,94.5 C 67.1667,94.5 66.8333,94.5 66.5,94.5C 66.8333,91.8333 67.1667,91.8333 67.5,94.5 Z"/></g>
</svg>
