<?xml version="1.0" encoding="UTF-8"?>
<!DOCTYPE svg PUBLIC "-//W3C//DTD SVG 1.1//EN" "http://www.w3.org/Graphics/SVG/1.1/DTD/svg11.dtd">
<svg xmlns="http://www.w3.org/2000/svg" version="1.1" width="348px" height="150px" style="shape-rendering:geometricPrecision; text-rendering:geometricPrecision; image-rendering:optimizeQuality; fill-rule:evenodd; clip-rule:evenodd" xmlns:xlink="http://www.w3.org/1999/xlink">
<g><path style="opacity:1" fill="#0d2f47" d="M 118.5,119.5 C 116.821,119.715 115.821,119.048 115.5,117.5C 115.44,116.957 115.107,116.624 114.5,116.5C 109.658,118.085 105.325,120.418 101.5,123.5C 100.5,123.833 99.8333,124.5 99.5,125.5C 98.6364,126.688 97.6364,127.855 96.5,129C 96.7284,129.399 97.0618,129.565 97.5,129.5C 96.8333,130.167 96.1667,130.833 95.5,131.5C 94.0413,131.433 92.7079,131.766 91.5,132.5C 90.1667,132.167 88.8333,131.833 87.5,131.5C 89.3779,130.792 91.0445,129.626 92.5,128C 91.552,127.517 90.552,127.351 89.5,127.5C 89.1583,126.662 88.4916,126.328 87.5,126.5C 93.5688,123.293 99.5688,119.793 105.5,116C 97.1204,118.652 88.4537,120.152 79.5,120.5C 77.5714,120.769 75.9047,120.269 74.5,119C 80.9707,118.306 87.3041,116.973 93.5,115C 92.7476,114.329 92.4142,113.496 92.5,112.5C 96.6579,113.539 100.658,113.539 104.5,112.5C 115.749,111.047 124.083,105.381 129.5,95.5C 129.333,95.1667 129.167,94.8333 129,94.5C 127.296,96.3734 125.463,98.0401 123.5,99.5C 124.833,97.1667 126.167,94.8333 127.5,92.5C 128.946,90.2965 129.78,87.9631 130,85.5C 126.087,90.7107 121.254,94.8773 115.5,98C 114.668,98.6877 114.002,98.521 113.5,97.5C 116.055,90.445 116.055,83.445 113.5,76.5C 113.5,75.8333 113.5,75.1667 113.5,74.5C 119.05,71.4643 122.883,67.131 125,61.5C 122.894,64.1177 120.394,66.1177 117.5,67.5C 119.38,65.0744 120.713,62.4077 121.5,59.5C 123.203,57.1488 123.703,54.4822 123,51.5C 119.881,57.7877 115.048,62.1211 108.5,64.5C 95.7021,51.2345 80.3687,46.9011 62.5,51.5C 61.5489,50.0813 61.2155,48.4147 61.5,46.5C 62.791,46.7373 63.791,46.404 64.5,45.5C 66.8333,44.8333 69.1667,44.1667 71.5,43.5C 72.3764,43.6309 73.0431,43.2975 73.5,42.5C 71.2,37.2019 67.5334,33.2019 62.5,30.5C 61.5098,24.3554 61.1765,18.0221 61.5,11.5C 66.1031,10.6167 70.7697,10.2834 75.5,10.5C 82.2079,10.7744 88.5413,12.4411 94.5,15.5C 94.8797,13.9793 95.0464,12.3126 95,10.5C 98.2934,9.46863 101.46,9.96863 104.5,12C 106.417,15.0833 109.084,17.25 112.5,18.5C 114.291,20.0208 115.624,21.8542 116.5,24C 119.841,23.9682 123.174,23.4682 126.5,22.5C 127.167,22.8333 127.833,23.1667 128.5,23.5C 125.743,27.0468 122.743,30.3802 119.5,33.5C 141.041,62.5451 140.708,91.2118 118.5,119.5 Z M 78.5,26.5 C 82.1844,28.2033 82.351,30.2033 79,32.5C 78.3551,31.354 77.5217,30.354 76.5,29.5C 77.6119,28.7348 78.2786,27.7348 78.5,26.5 Z"/></g>
<g><path style="opacity:1" fill="#11a1d0" d="M 75.5,15.5 C 77.1042,16.287 77.7709,17.6203 77.5,19.5C 76.5,19.5 75.5,19.5 74.5,19.5C 74.4326,18.0413 74.7659,16.7079 75.5,15.5 Z"/></g>
<g><path style="opacity:1" fill="#b8c5c9" d="M 67.5,14.5 C 69.8519,15.5426 70.0185,16.8759 68,18.5C 66.2317,17.3181 66.0651,15.9848 67.5,14.5 Z"/></g>
<g><path style="opacity:1" fill="#0c5077" d="M 57.5,8.5 C 58.1667,43.5 58.8333,78.5 59.5,113.5C 59.8333,113.5 60.1667,113.5 60.5,113.5C 60.5,113.833 60.5,114.167 60.5,114.5C 59.5,114.5 58.5,114.5 57.5,114.5C 57.5,79.1667 57.5,43.8333 57.5,8.5 Z"/></g>
<g><path style="opacity:1" fill="#ced8da" d="M 51.5,19.5 C 51.6107,20.1174 51.944,20.6174 52.5,21C 51.5842,21.2784 50.9175,21.7784 50.5,22.5C 48.8916,23.5381 47.8916,22.8714 47.5,20.5C 48.3246,18.2997 49.6579,17.9663 51.5,19.5 Z"/></g>
<g><path style="opacity:1" fill="#10a2d1" d="M 82.5,17.5 C 84.2926,17.8836 85.2926,19.0503 85.5,21C 84.1667,24.3333 82.8333,24.3333 81.5,21C 81.9891,19.8615 82.3225,18.6948 82.5,17.5 Z"/></g>
<g><path style="opacity:1" fill="#d4e3d1" d="M 111.5,24.5 C 110.713,22.8958 109.38,22.2291 107.5,22.5C 107.964,19.304 109.464,19.304 112,22.5C 112.692,23.4368 112.525,24.1034 111.5,24.5 Z"/></g>
<g><path style="opacity:1" fill="#7bd02b" d="M 107.5,22.5 C 109.38,22.2291 110.713,22.8958 111.5,24.5C 109.62,24.7709 108.287,24.1042 107.5,22.5 Z"/></g>
<g><path style="opacity:1" fill="#c0cbcf" d="M 68.5,23.5 C 71.6741,23.9522 72.0075,24.9522 69.5,26.5C 67.4807,25.8671 67.1474,24.8671 68.5,23.5 Z"/></g>
<g><path style="opacity:1" fill="#5acfef" d="M 116.5,27.5 C 112.469,29.4387 108.136,29.9387 103.5,29C 101.183,27.6802 99.1829,26.0136 97.5,24C 99.2705,23.4646 99.6039,22.6313 98.5,21.5C 97.4822,22.1925 96.4822,22.8592 95.5,23.5C 97.9592,20.6672 99.6258,17.3339 100.5,13.5C 103.76,15.959 105.26,19.2924 105,23.5C 108.04,26.9663 111.874,28.2996 116.5,27.5 Z"/></g>
<g><path style="opacity:1" fill="#e3ece0" d="M 45.5,27.5 C 48.8499,27.335 52.1832,27.5017 55.5,28C 56.3366,29.0113 56.67,30.1779 56.5,31.5C 56.1667,31.5 55.8333,31.5 55.5,31.5C 53.7116,30.3775 51.7116,30.2109 49.5,31C 51.2112,32.1332 51.7112,33.6332 51,35.5C 45.0177,29.8349 38.1844,28.1682 30.5,30.5C 29.448,30.6495 28.448,30.4828 27.5,30C 28.8333,29.3333 30.1667,28.6667 31.5,28C 36.3566,27.9189 41.0233,27.7522 45.5,27.5 Z"/></g>
<g><path style="opacity:1" fill="#10a4e3" d="M 116.5,27.5 C 117.552,27.3505 118.552,27.5172 119.5,28C 117.999,29.2515 116.332,30.2515 114.5,31C 113.167,31.6667 113.167,32.3333 114.5,33C 103.994,37.6022 97.6611,34.4355 95.5,23.5C 96.4822,22.8592 97.4822,22.1925 98.5,21.5C 99.6039,22.6313 99.2705,23.4646 97.5,24C 99.1829,26.0136 101.183,27.6802 103.5,29C 108.136,29.9387 112.469,29.4387 116.5,27.5 Z"/></g>
<g><path style="opacity:1" fill="#81da20" d="M 30.5,30.5 C 38.1844,28.1682 45.0177,29.8349 51,35.5C 51.7112,33.6332 51.2112,32.1332 49.5,31C 51.7116,30.2109 53.7116,30.3775 55.5,31.5C 55.5,36.1667 55.5,40.8333 55.5,45.5C 53.5,45.8333 51.5,46.1667 49.5,46.5C 49.6633,44.1432 49.4966,41.8098 49,39.5C 47.2703,37.5981 45.437,35.9314 43.5,34.5C 42.8333,31.8333 42.1667,31.8333 41.5,34.5C 40.8333,34.5 40.1667,34.5 39.5,34.5C 36.6484,32.9091 33.6484,31.5758 30.5,30.5 Z"/></g>
<g><path style="opacity:1" fill="#f1fae8" d="M 43.5,34.5 C 42.8333,34.5 42.1667,34.5 41.5,34.5C 42.1667,31.8333 42.8333,31.8333 43.5,34.5 Z"/></g>
<g><path style="opacity:1" fill="#d9e9d1" d="M 40.5,37.5 C 44.8252,41.4406 46.1586,46.1072 44.5,51.5C 44.4828,49.4352 44.1495,47.4352 43.5,45.5C 43.3404,43.847 42.6737,42.5137 41.5,41.5C 36.032,35.6676 29.3654,34.001 21.5,36.5C 23.3318,34.1058 25.8318,33.1058 29,33.5C 33.3309,33.554 37.1642,34.8874 40.5,37.5 Z"/></g>
<g><path style="opacity:1" fill="#76d51a" d="M 62.5,33.5 C 66.8757,35.5775 69.8757,38.9108 71.5,43.5C 69.1667,44.1667 66.8333,44.8333 64.5,45.5C 62.5772,41.9707 61.9106,37.9707 62.5,33.5 Z"/></g>
<g><path style="opacity:1" fill="#e9f0e6" d="M 62.5,30.5 C 67.5334,33.2019 71.2,37.2019 73.5,42.5C 73.0431,43.2975 72.3764,43.6309 71.5,43.5C 69.8757,38.9108 66.8757,35.5775 62.5,33.5C 62.5,32.5 62.5,31.5 62.5,30.5 Z"/></g>
<g><path style="opacity:1" fill="#0d699c" d="M 111.5,36.5 C 119.6,39.0628 119.267,39.8961 110.5,39C 109.833,38.6667 109.167,38.3333 108.5,38C 109.737,37.7679 110.737,37.2679 111.5,36.5 Z"/></g>
<g><path style="opacity:1" fill="#7dd91c" d="M 41.5,41.5 C 40.3886,42.6597 39.3886,43.993 38.5,45.5C 36.0276,44.2335 33.6943,44.2335 31.5,45.5C 30.7354,45.9234 29.9021,46.2568 29,46.5C 27.3566,45.6854 25.8566,44.6854 24.5,43.5C 24.3059,41.0882 22.9726,40.0882 20.5,40.5C 20.5,41.5 20.5,42.5 20.5,43.5C 19.8999,42.0998 18.8999,41.0998 17.5,40.5C 18.5274,38.8058 19.8608,37.4725 21.5,36.5C 29.3654,34.001 36.032,35.6676 41.5,41.5 Z"/></g>
<g><path style="opacity:1" fill="#edf9dd" d="M 25.5,37.5 C 26.8333,37.5 28.1667,37.5 29.5,37.5C 29.5,38.5 29.5,39.5 29.5,40.5C 28.1667,40.5 26.8333,40.5 25.5,40.5C 25.5,39.5 25.5,38.5 25.5,37.5 Z"/></g>
<g><path style="opacity:1" fill="#f0f9e6" d="M 24.5,43.5 C 23.0387,44.6857 21.7054,44.6857 20.5,43.5C 20.5,42.5 20.5,41.5 20.5,40.5C 22.9726,40.0882 24.3059,41.0882 24.5,43.5 Z"/></g>
<g><path style="opacity:1" fill="#d1e1ca" d="M 112.5,54.5 C 112.663,52.1432 112.497,49.8098 112,47.5C 111.617,46.944 111.117,46.6107 110.5,46.5C 109.883,46.3893 109.383,46.056 109,45.5C 108.51,46.7932 108.343,48.1266 108.5,49.5C 108.167,49.5 107.833,49.5 107.5,49.5C 107.084,47.2475 105.751,45.7475 103.5,45C 104.784,44.3162 105.951,44.4829 107,45.5C 109.096,44.2845 108.929,43.4512 106.5,43C 102.868,42.4807 99.8679,43.6474 97.5,46.5C 101.893,38.8351 107.06,38.5018 113,45.5C 113.805,48.6965 113.638,51.6965 112.5,54.5 Z"/></g>
<g><path style="opacity:1" fill="#0f3045" d="M 75.5,10.5 C 70.7697,10.2834 66.1031,10.6167 61.5,11.5C 61.5,10.1667 61.5,8.83333 61.5,7.5C 61.8238,4.31978 60.4904,3.15312 57.5,4C 56.944,4.38258 56.6107,4.88258 56.5,5.5C 54.6565,7.27887 53.9898,9.61221 54.5,12.5C 50.9438,12.2749 50.6105,13.1082 53.5,15C 53.0946,15.9454 52.428,16.6121 51.5,17C 52.5981,17.7697 52.5981,18.603 51.5,19.5C 49.6579,17.9663 48.3246,18.2997 47.5,20.5C 47.8916,22.8714 48.8916,23.5381 50.5,22.5C 50.5,23.5 50.5,24.5 50.5,25.5C 48.4305,25.5514 46.5971,24.8847 45,23.5C 41.7057,25.6454 41.8724,26.9787 45.5,27.5C 41.0233,27.7522 36.3566,27.9189 31.5,28C 30.1667,28.6667 28.8333,29.3333 27.5,30C 28.448,30.4828 29.448,30.6495 30.5,30.5C 33.6484,31.5758 36.6484,32.9091 39.5,34.5C 40.1098,35.391 40.4431,36.391 40.5,37.5C 37.1642,34.8874 33.3309,33.554 29,33.5C 25.8318,33.1058 23.3318,34.1058 21.5,36.5C 19.8608,37.4725 18.5274,38.8058 17.5,40.5C 14.5561,44.0212 13.8895,48.0212 15.5,52.5C 20.0558,50.3105 24.7224,49.9772 29.5,51.5C 29.56,52.0431 29.8933,52.3764 30.5,52.5C 31.2508,51.624 31.7508,50.624 32,49.5C 32.2784,50.4158 32.7784,51.0825 33.5,51.5C 33.8782,53.921 34.5448,56.2543 35.5,58.5C 36.7416,60.6112 36.7416,62.6112 35.5,64.5C 35.313,62.4357 34.813,60.4357 34,58.5C 33.8333,59.8333 33.6667,61.1667 33.5,62.5C 33.361,65.488 34.0277,67.488 35.5,68.5C 36.1667,68.5 36.8333,68.5 37.5,68.5C 37.369,69.2389 37.5357,69.9056 38,70.5C 38.8466,68.8068 39.6799,67.1401 40.5,65.5C 40.9174,62.8411 41.9174,60.5078 43.5,58.5C 43.369,59.2389 43.5357,59.9056 44,60.5C 46.0678,56.9295 48.9012,54.2629 52.5,52.5C 52.3893,53.1174 52.056,53.6174 51.5,54C 52.9007,54.4101 54.234,54.9101 55.5,55.5C 54.1667,56.9335 52.6667,58.2668 51,59.5C 48.6422,62.2223 46.8089,65.2223 45.5,68.5C 42.4675,73.0861 41.8008,78.0861 43.5,83.5C 40.9839,84.6004 39.9839,86.2671 40.5,88.5C 42.0287,87.2371 43.6954,86.2371 45.5,85.5C 46.1667,86.5 46.8333,87.5 47.5,88.5C 45.4922,90.2676 43.3256,91.9343 41,93.5C 40.3947,95.6354 40.8947,95.9687 42.5,94.5C 40.8048,98.1234 39.3048,98.1234 38,94.5C 37.5357,95.0944 37.369,95.7611 37.5,96.5C 36.8333,95.8333 36.1667,95.1667 35.5,94.5C 35.8226,90.774 35.4892,87.1073 34.5,83.5C 33.1401,82.8201 31.8068,82.1534 30.5,81.5C 30.0825,80.7784 29.4158,80.2784 28.5,80C 29.6667,79.5 30.5,78.6667 31,77.5C 33.9507,81.8795 35.784,81.3795 36.5,76C 36.3333,75.5 36.1667,75 36,74.5C 35.0853,75.3279 34.4186,76.3279 34,77.5C 33.8019,75.6183 33.3019,73.9516 32.5,72.5C 30.329,67.2228 26.329,64.0561 20.5,63C 24.2027,62.4213 27.8694,62.588 31.5,63.5C 31.7214,60.7212 31.388,58.0545 30.5,55.5C 30.0825,54.7784 29.4158,54.2784 28.5,54C 25.1667,53.3333 21.8333,53.3333 18.5,54C 15.921,55.0757 14.2543,56.909 13.5,59.5C 12.8333,60.1667 12.1667,60.8333 11.5,61.5C 10.6371,60.0597 10.6371,58.7264 11.5,57.5C 11.1667,57.1667 10.8333,56.8333 10.5,56.5C 9.83333,57.1667 9.16667,57.8333 8.5,58.5C 8.16667,58 7.83333,57.5 7.5,57C 8.3396,55.8288 9.17294,54.6621 10,53.5C 10.7175,54.4506 11.5509,54.6172 12.5,54C 12.3068,52.3547 12.1402,50.5213 12,48.5C 10.5682,46.0688 9.06818,46.0688 7.5,48.5C 16.8707,28.7999 32.2041,16.4665 53.5,11.5C 51.1562,3.02281 54.1562,-0.47719 62.5,1C 64.3137,3.48146 64.9804,6.31479 64.5,9.5C 68.3714,9.18503 72.0381,9.51836 75.5,10.5 Z"/></g>
<g><path style="opacity:1" fill="#4fbf10" d="M 17.5,40.5 C 18.8999,41.0998 19.8999,42.0998 20.5,43.5C 21.7054,44.6857 23.0387,44.6857 24.5,43.5C 25.8566,44.6854 27.3566,45.6854 29,46.5C 29.9021,46.2568 30.7354,45.9234 31.5,45.5C 31.405,47.7857 30.7384,49.7857 29.5,51.5C 24.7224,49.9772 20.0558,50.3105 15.5,52.5C 13.8895,48.0212 14.5561,44.0212 17.5,40.5 Z"/></g>
<g><path style="opacity:1" fill="#64bd2a" d="M 84.5,34.5 C 95.0876,34.0118 97.7542,38.3451 92.5,47.5C 89.6393,46.8384 88.9727,45.3384 90.5,43C 90.1377,41.7753 89.6377,40.6086 89,39.5C 88.885,42.0082 87.885,44.0082 86,45.5C 83.5661,44.6777 81.0661,44.3444 78.5,44.5C 78.4914,42.6916 78.9914,41.0249 80,39.5C 81.7073,37.9625 83.2073,36.2959 84.5,34.5 Z"/></g>
<g><path style="opacity:1" fill="#f1fbe6" d="M 86.5,37.5 C 89.824,35.7881 91.6573,36.7881 92,40.5C 90.5123,38.84 88.679,37.84 86.5,37.5 Z"/></g>
<g><path style="opacity:1" fill="#7cd61f" d="M 107.5,49.5 C 107.5,50.5 107.5,51.5 107.5,52.5C 106.5,52.5 105.5,52.5 104.5,52.5C 103.401,49.0683 101.068,47.0683 97.5,46.5C 99.8679,43.6474 102.868,42.4807 106.5,43C 108.929,43.4512 109.096,44.2845 107,45.5C 105.951,44.4829 104.784,44.3162 103.5,45C 105.751,45.7475 107.084,47.2475 107.5,49.5 Z"/></g>
<g><path style="opacity:1" fill="#c2ced1" d="M 117.5,43.5 C 119.332,44.1405 119.665,45.1405 118.5,46.5C 116.481,45.8671 116.147,44.8671 117.5,43.5 Z"/></g>
<g><path style="opacity:1" fill="#46bc0e" d="M 41.5,41.5 C 42.6737,42.5137 43.3404,43.847 43.5,45.5C 42.7171,48.7702 41.7171,52.1035 40.5,55.5C 39.0603,56.9524 37.3936,57.9524 35.5,58.5C 34.5448,56.2543 33.8782,53.921 33.5,51.5C 33.9746,48.9179 33.3079,46.9179 31.5,45.5C 33.6943,44.2335 36.0276,44.2335 38.5,45.5C 39.3886,43.993 40.3886,42.6597 41.5,41.5 Z"/></g>
<g><path style="opacity:1" fill="#369026" d="M 31.5,45.5 C 33.3079,46.9179 33.9746,48.9179 33.5,51.5C 32.7784,51.0825 32.2784,50.4158 32,49.5C 31.7508,50.624 31.2508,51.624 30.5,52.5C 29.8933,52.3764 29.56,52.0431 29.5,51.5C 30.7384,49.7857 31.405,47.7857 31.5,45.5 Z"/></g>
<g><path style="opacity:1" fill="#47b815" d="M 55.5,31.5 C 55.8333,31.5 56.1667,31.5 56.5,31.5C 56.8293,37.5368 56.4959,43.5368 55.5,49.5C 54.1451,50.1882 53.1451,51.1882 52.5,52.5C 48.9012,54.2629 46.0678,56.9295 44,60.5C 43.5357,59.9056 43.369,59.2389 43.5,58.5C 43.6741,56.139 44.0074,53.8056 44.5,51.5C 46.1586,46.1072 44.8252,41.4406 40.5,37.5C 40.4431,36.391 40.1098,35.391 39.5,34.5C 40.1667,34.5 40.8333,34.5 41.5,34.5C 42.1667,34.5 42.8333,34.5 43.5,34.5C 45.437,35.9314 47.2703,37.5981 49,39.5C 49.4966,41.8098 49.6633,44.1432 49.5,46.5C 51.5,46.1667 53.5,45.8333 55.5,45.5C 55.5,40.8333 55.5,36.1667 55.5,31.5 Z"/></g>
<g><path style="opacity:0.881" fill="#f2f9e9" d="M 146.5,50.5 C 152.842,50.3338 159.175,50.5005 165.5,51C 176.409,53.5934 181.742,60.5934 181.5,72C 181.79,82.4458 177.124,89.4458 167.5,93C 160.508,93.4996 153.508,93.6663 146.5,93.5C 146.5,79.1667 146.5,64.8333 146.5,50.5 Z M 153.5,57.5 C 169.849,55.3486 176.349,62.3486 173,78.5C 172.117,81.1024 170.617,83.2691 168.5,85C 163.705,87.0331 158.705,87.8664 153.5,87.5C 153.5,77.5 153.5,67.5 153.5,57.5 Z"/></g>
<g><path style="opacity:0.902" fill="#f2f9e9" d="M 237.5,50.5 C 246.833,50.5 256.167,50.5 265.5,50.5C 265.5,52.5 265.5,54.5 265.5,56.5C 258.833,56.5 252.167,56.5 245.5,56.5C 245.5,60.5 245.5,64.5 245.5,68.5C 251.833,68.5 258.167,68.5 264.5,68.5C 264.5,70.8333 264.5,73.1667 264.5,75.5C 258.167,75.5 251.833,75.5 245.5,75.5C 245.5,79.5 245.5,83.5 245.5,87.5C 252.167,87.5 258.833,87.5 265.5,87.5C 265.5,89.5 265.5,91.5 265.5,93.5C 256.167,93.5 246.833,93.5 237.5,93.5C 237.5,79.1667 237.5,64.8333 237.5,50.5 Z"/></g>
<g><path style="opacity:0.89" fill="#f2f9e9" d="M 270.5,50.5 C 273.685,50.0196 276.519,50.6863 279,52.5C 284.507,61.5152 290.507,70.1818 297,78.5C 297.5,69.1726 297.666,59.8393 297.5,50.5C 300.167,50.5 302.833,50.5 305.5,50.5C 305.5,64.8333 305.5,79.1667 305.5,93.5C 302.753,93.8134 300.086,93.48 297.5,92.5C 291.195,83.0286 284.695,73.6953 278,64.5C 277.5,74.1609 277.334,83.8276 277.5,93.5C 275.167,93.5 272.833,93.5 270.5,93.5C 270.5,79.1667 270.5,64.8333 270.5,50.5 Z"/></g>
<g><path style="opacity:0.858" fill="#f2f9e9" d="M 308.5,50.5 C 311.167,50.5 313.833,50.5 316.5,50.5C 319.764,61.2905 323.43,71.9571 327.5,82.5C 331.364,72.2409 335.031,61.9075 338.5,51.5C 341.086,50.52 343.753,50.1866 346.5,50.5C 341.833,64.8333 337.167,79.1667 332.5,93.5C 329.223,93.7839 326.057,93.4505 323,92.5C 317.298,78.7708 312.465,64.7708 308.5,50.5 Z"/></g>
<g><path style="opacity:1" fill="#71c03c" d="M 110.5,46.5 C 111.117,46.6107 111.617,46.944 112,47.5C 112.497,49.8098 112.663,52.1432 112.5,54.5C 112.27,56.9828 111.603,57.4828 110.5,56C 111.774,52.8231 111.774,49.6564 110.5,46.5 Z"/></g>
<g><path style="opacity:1" fill="#264955" d="M 61.5,7.5 C 61.5,8.83333 61.5,10.1667 61.5,11.5C 61.1765,18.0221 61.5098,24.3554 62.5,30.5C 62.5,31.5 62.5,32.5 62.5,33.5C 61.9106,37.9707 62.5772,41.9707 64.5,45.5C 63.791,46.404 62.791,46.7373 61.5,46.5C 61.2155,48.4147 61.5489,50.0813 62.5,51.5C 62.5,52.1667 62.5,52.8333 62.5,53.5C 62.5,54.8333 62.5,56.1667 62.5,57.5C 62.5,58.8333 62.5,60.1667 62.5,61.5C 62.5,65.8333 62.5,70.1667 62.5,74.5C 62.5,76.8333 62.5,79.1667 62.5,81.5C 62.5,82.1667 62.5,82.8333 62.5,83.5C 62.5,86.1667 62.5,88.8333 62.5,91.5C 62.5,95.5 62.5,99.5 62.5,103.5C 62.5,105.833 62.5,108.167 62.5,110.5C 62.4326,111.959 62.7659,113.292 63.5,114.5C 62.5,114.5 61.5,114.5 60.5,114.5C 60.5,114.167 60.5,113.833 60.5,113.5C 60.1683,77.9961 60.5016,42.6627 61.5,7.5 Z"/></g>
<g><path style="opacity:1" fill="#21d6f0" d="M 87.5,58.5 C 84.1667,61.5 80.8333,64.5 77.5,67.5C 77.3505,66.448 77.5172,65.448 78,64.5C 84.1998,59.1328 83.0331,57.4661 74.5,59.5C 73.8313,61.6309 73.1646,63.6309 72.5,65.5C 72.9501,57.9421 69.6168,55.2755 62.5,57.5C 62.5,56.1667 62.5,54.8333 62.5,53.5C 70.667,50.8529 78.8336,50.8529 87,53.5C 87.4935,55.1341 87.6602,56.8008 87.5,58.5 Z"/></g>
<g><path style="opacity:1" fill="#d7e7cf" d="M 30.5,55.5 C 23.8706,53.1943 18.204,54.5276 13.5,59.5C 14.2543,56.909 15.921,55.0757 18.5,54C 21.8333,53.3333 25.1667,53.3333 28.5,54C 29.4158,54.2784 30.0825,54.7784 30.5,55.5 Z"/></g>
<g><path style="opacity:1" fill="#3db417" d="M 97.5,46.5 C 101.068,47.0683 103.401,49.0683 104.5,52.5C 105.5,52.5 106.5,52.5 107.5,52.5C 107.5,51.5 107.5,50.5 107.5,49.5C 107.833,49.5 108.167,49.5 108.5,49.5C 108.736,52.2257 107.903,54.559 106,56.5C 103,54.1667 100,51.8333 97,49.5C 96.2599,48.2506 96.4265,47.2506 97.5,46.5 Z"/></g>
<g><path style="opacity:0.867" fill="#f2f9e9" d="M 219.5,53.5 C 221.833,53.5 224.167,53.5 226.5,53.5C 226.5,56.1667 226.5,58.8333 226.5,61.5C 228.833,61.5 231.167,61.5 233.5,61.5C 233.5,63.1667 233.5,64.8333 233.5,66.5C 231.167,66.5 228.833,66.5 226.5,66.5C 226.334,72.5092 226.501,78.5092 227,84.5C 228.287,87.1446 230.453,88.1446 233.5,87.5C 233.784,89.8771 233.784,92.0438 233.5,94C 228.563,95.3694 224.396,94.2027 221,90.5C 219.565,82.6112 219.065,74.6112 219.5,66.5C 217.833,66.5 216.167,66.5 214.5,66.5C 214.5,64.8333 214.5,63.1667 214.5,61.5C 216.167,61.5 217.833,61.5 219.5,61.5C 219.5,58.8333 219.5,56.1667 219.5,53.5 Z"/></g>
<g><path style="opacity:1" fill="#153b3d" d="M 43.5,45.5 C 44.1495,47.4352 44.4828,49.4352 44.5,51.5C 44.0074,53.8056 43.6741,56.139 43.5,58.5C 41.9174,60.5078 40.9174,62.8411 40.5,65.5C 40.5,63.8333 40.5,62.1667 40.5,60.5C 39.5,60.5 38.5,60.5 37.5,60.5C 37.5,63.1667 37.5,65.8333 37.5,68.5C 36.8333,68.5 36.1667,68.5 35.5,68.5C 35.5,67.1667 35.5,65.8333 35.5,64.5C 36.7416,62.6112 36.7416,60.6112 35.5,58.5C 37.3936,57.9524 39.0603,56.9524 40.5,55.5C 41.7171,52.1035 42.7171,48.7702 43.5,45.5 Z"/></g>
<g><path style="opacity:1" fill="#e8f4f0" d="M 121.5,59.5 C 112.756,67.5973 102.422,72.764 90.5,75C 94.9054,75.6959 99.2388,75.3626 103.5,74C 108.339,72.0787 113.006,69.912 117.5,67.5C 120.394,66.1177 122.894,64.1177 125,61.5C 122.883,67.131 119.05,71.4643 113.5,74.5C 103.717,79.0774 93.3832,81.4107 82.5,81.5C 79.4196,81.2523 76.4196,80.5856 73.5,79.5C 69.9254,81.1222 66.2588,82.4555 62.5,83.5C 62.5,82.8333 62.5,82.1667 62.5,81.5C 68.7924,77.8556 75.4591,75.0223 82.5,73C 85.3895,71.0622 88.0562,68.8955 90.5,66.5C 90.9059,67.5575 90.9059,68.8908 90.5,70.5C 95.947,70.3896 100.947,68.8896 105.5,66C 104.675,64.3117 103.675,64.1451 102.5,65.5C 101.719,64.2713 101.219,62.938 101,61.5C 100.586,61.9574 100.086,62.2907 99.5,62.5C 98.5713,61.3112 98.238,59.9778 98.5,58.5C 94.6837,59.6203 91.0171,59.6203 87.5,58.5C 87.6602,56.8008 87.4935,55.1341 87,53.5C 78.8336,50.8529 70.667,50.8529 62.5,53.5C 62.5,52.8333 62.5,52.1667 62.5,51.5C 80.3687,46.9011 95.7021,51.2345 108.5,64.5C 115.048,62.1211 119.881,57.7877 123,51.5C 123.703,54.4822 123.203,57.1488 121.5,59.5 Z"/></g>
<g><path style="opacity:0.843" fill="#f2f9e9" d="M 194.5,60.5 C 204.51,59.0406 211.01,63.0406 214,72.5C 215.883,89.9581 208.383,96.7914 191.5,93C 183.681,86.8603 181.514,79.027 185,69.5C 186.871,65.0064 190.038,62.0064 194.5,60.5 Z M 197.5,66.5 C 204.171,67.3038 207.171,71.1371 206.5,78C 206.722,83.4444 204.222,86.9444 199,88.5C 193.776,86.7326 190.942,83.0659 190.5,77.5C 191.097,72.6206 193.43,68.954 197.5,66.5 Z"/></g>
<g><path style="opacity:1" fill="#73da29" d="M 72.5,65.5 C 71.3397,68.1328 69.3397,68.9661 66.5,68C 65.9781,67.4387 65.6448,66.772 65.5,66C 66.7073,64.6998 67.3739,63.1998 67.5,61.5C 65.8333,61.5 64.1667,61.5 62.5,61.5C 62.5,60.1667 62.5,58.8333 62.5,57.5C 69.6168,55.2755 72.9501,57.9421 72.5,65.5 Z"/></g>
<g><path style="opacity:1" fill="#cededf" d="M 61.5,7.5 C 60.5016,42.6627 60.1683,77.9961 60.5,113.5C 60.1667,113.5 59.8333,113.5 59.5,113.5C 59.5,77.5 59.5,41.5 59.5,5.5C 58.5,5.5 57.5,5.5 56.5,5.5C 56.6107,4.88258 56.944,4.38258 57.5,4C 60.4904,3.15312 61.8238,4.31978 61.5,7.5 Z"/></g>
<g><path style="opacity:1" fill="#635f45" d="M 35.5,64.5 C 35.5,65.8333 35.5,67.1667 35.5,68.5C 34.0277,67.488 33.361,65.488 33.5,62.5C 33.6667,61.1667 33.8333,59.8333 34,58.5C 34.813,60.4357 35.313,62.4357 35.5,64.5 Z"/></g>
<g><path style="opacity:1" fill="#39a91c" d="M 40.5,65.5 C 39.6799,67.1401 38.8466,68.8068 38,70.5C 37.5357,69.9056 37.369,69.2389 37.5,68.5C 37.5,65.8333 37.5,63.1667 37.5,60.5C 38.5,60.5 39.5,60.5 40.5,60.5C 40.5,62.1667 40.5,63.8333 40.5,65.5 Z"/></g>
<g><path style="opacity:1" fill="#5cc412" d="M 30.5,55.5 C 31.388,58.0545 31.7214,60.7212 31.5,63.5C 27.8694,62.588 24.2027,62.4213 20.5,63C 26.329,64.0561 30.329,67.2228 32.5,72.5C 32.6567,73.8734 32.49,75.2068 32,76.5C 30.5945,73.5914 28.4278,71.5914 25.5,70.5C 24.776,72.2184 24.1094,74.0517 23.5,76C 21.2511,76.8632 19.4178,76.3632 18,74.5C 16.4878,75.2567 15.1545,76.2567 14,77.5C 12.1735,76.1587 11.0069,76.6587 10.5,79C 10.5699,79.7648 10.9033,80.2648 11.5,80.5C 12.2485,82.3325 13.2485,83.9991 14.5,85.5C 14.5,86.1667 14.1667,86.5 13.5,86.5C 7.14747,82.1093 4.9808,76.1093 7,68.5C 8.74983,66.2657 10.2498,63.9324 11.5,61.5C 12.1667,60.8333 12.8333,60.1667 13.5,59.5C 18.204,54.5276 23.8706,53.1943 30.5,55.5 Z"/></g>
<g><path style="opacity:1" fill="#ebf8df" d="M 13.5,62.5 C 15.337,62.6395 15.6704,63.3061 14.5,64.5C 13.7025,64.0431 13.3691,63.3764 13.5,62.5 Z"/></g>
<g><path style="opacity:1" fill="#0fc5ef" d="M 77.5,67.5 C 72.8918,70.637 67.8918,72.9703 62.5,74.5C 62.5,70.1667 62.5,65.8333 62.5,61.5C 64.1667,61.5 65.8333,61.5 67.5,61.5C 67.3739,63.1998 66.7073,64.6998 65.5,66C 65.6448,66.772 65.9781,67.4387 66.5,68C 69.3397,68.9661 71.3397,68.1328 72.5,65.5C 73.1646,63.6309 73.8313,61.6309 74.5,59.5C 83.0331,57.4661 84.1998,59.1328 78,64.5C 77.5172,65.448 77.3505,66.448 77.5,67.5 Z"/></g>
<g><path style="opacity:1" fill="#74d520" d="M 87.5,58.5 C 91.0171,59.6203 94.6837,59.6203 98.5,58.5C 98.238,59.9778 98.5713,61.3112 99.5,62.5C 100.086,62.2907 100.586,61.9574 101,61.5C 101.219,62.938 101.719,64.2713 102.5,65.5C 103.675,64.1451 104.675,64.3117 105.5,66C 100.947,68.8896 95.947,70.3896 90.5,70.5C 90.9059,68.8908 90.9059,67.5575 90.5,66.5C 88.0562,68.8955 85.3895,71.0622 82.5,73C 75.4591,75.0223 68.7924,77.8556 62.5,81.5C 62.5,79.1667 62.5,76.8333 62.5,74.5C 67.8918,72.9703 72.8918,70.637 77.5,67.5C 80.8333,64.5 84.1667,61.5 87.5,58.5 Z"/></g>
<g><path style="opacity:1" fill="#3ecaed" d="M 121.5,59.5 C 120.713,62.4077 119.38,65.0744 117.5,67.5C 113.006,69.912 108.339,72.0787 103.5,74C 99.2388,75.3626 94.9054,75.6959 90.5,75C 102.422,72.764 112.756,67.5973 121.5,59.5 Z"/></g>
<g><path style="opacity:1" fill="#0da9e6" d="M 55.5,55.5 C 56.4834,59.2984 56.8168,63.2984 56.5,67.5C 55.3263,68.5137 54.6596,69.847 54.5,71.5C 54.2042,75.7893 52.2042,78.7893 48.5,80.5C 46.2631,76.8859 45.2631,72.8859 45.5,68.5C 46.8089,65.2223 48.6422,62.2223 51,59.5C 52.6667,58.2668 54.1667,56.9335 55.5,55.5 Z"/></g>
<g><path style="opacity:1" fill="#368c31" d="M 56.5,67.5 C 56.5,71.8333 56.5,76.1667 56.5,80.5C 56.1667,80.5 55.8333,80.5 55.5,80.5C 55.81,77.2869 55.4767,74.2869 54.5,71.5C 54.6596,69.847 55.3263,68.5137 56.5,67.5 Z"/></g>
<g><path style="opacity:1" fill="#dee5e6" d="M 124.5,70.5 C 125.558,73.3972 127.558,75.5639 130.5,77C 127.667,77.8333 125.833,79.6667 125,82.5C 124.167,79.6667 122.333,77.8333 119.5,77C 122.534,75.8088 124.201,73.6421 124.5,70.5 Z"/></g>
<g><path style="opacity:1" fill="#193e3e" d="M 25.5,70.5 C 28.4278,71.5914 30.5945,73.5914 32,76.5C 32.49,75.2068 32.6567,73.8734 32.5,72.5C 33.3019,73.9516 33.8019,75.6183 34,77.5C 34.4186,76.3279 35.0853,75.3279 36,74.5C 36.1667,75 36.3333,75.5 36.5,76C 35.784,81.3795 33.9507,81.8795 31,77.5C 30.5,78.6667 29.6667,79.5 28.5,80C 29.4158,80.2784 30.0825,80.7784 30.5,81.5C 29.8333,81.5 29.5,81.8333 29.5,82.5C 28.5416,82.0472 27.7083,81.3805 27,80.5C 26.5357,81.0944 26.369,81.7611 26.5,82.5C 24.7041,81.2073 23.0375,79.7073 21.5,78C 24.2348,78.1977 26.9015,78.031 29.5,77.5C 28.1111,75.1324 26.7778,72.7991 25.5,70.5 Z"/></g>
<g><path style="opacity:1" fill="#0d7cbe" d="M 45.5,68.5 C 45.2631,72.8859 46.2631,76.8859 48.5,80.5C 47.1667,81.5 45.8333,82.5 44.5,83.5C 44.1667,83.5 43.8333,83.5 43.5,83.5C 41.8008,78.0861 42.4675,73.0861 45.5,68.5 Z"/></g>
<g><path style="opacity:1" fill="#37af14" d="M 25.5,70.5 C 26.7778,72.7991 28.1111,75.1324 29.5,77.5C 26.9015,78.031 24.2348,78.1977 21.5,78C 23.0375,79.7073 24.7041,81.2073 26.5,82.5C 27.1408,83.4822 27.8075,84.4822 28.5,85.5C 21.2478,87.3113 15.7478,84.9779 12,78.5C 11.5357,79.0944 11.369,79.7611 11.5,80.5C 10.9033,80.2648 10.5699,79.7648 10.5,79C 11.0069,76.6587 12.1735,76.1587 14,77.5C 15.1545,76.2567 16.4878,75.2567 18,74.5C 19.4178,76.3632 21.2511,76.8632 23.5,76C 24.1094,74.0517 24.776,72.2184 25.5,70.5 Z"/></g>
<g><path style="opacity:1" fill="#47bf25" d="M 54.5,71.5 C 55.4767,74.2869 55.81,77.2869 55.5,80.5C 52.3965,82.3843 49.0632,83.7176 45.5,84.5C 44.8333,84.5 44.5,84.1667 44.5,83.5C 45.8333,82.5 47.1667,81.5 48.5,80.5C 52.2042,78.7893 54.2042,75.7893 54.5,71.5 Z"/></g>
<g><path style="opacity:1" fill="#30a6dd" d="M 56.5,5.5 C 57.5,5.5 58.5,5.5 59.5,5.5C 59.5,41.5 59.5,77.5 59.5,113.5C 58.8333,78.5 58.1667,43.5 57.5,8.5C 56.8902,7.60895 56.5569,6.60895 56.5,5.5 Z"/></g>
<g><path style="opacity:1" fill="#1f8ac6" d="M 55.5,80.5 C 55.8333,80.5 56.1667,80.5 56.5,80.5C 56.5,82.1667 56.5,83.8333 56.5,85.5C 53.4061,86.2134 50.4061,87.2134 47.5,88.5C 46.8333,87.5 46.1667,86.5 45.5,85.5C 45.5,85.1667 45.5,84.8333 45.5,84.5C 49.0632,83.7176 52.3965,82.3843 55.5,80.5 Z"/></g>
<g><path style="opacity:1" fill="#3cbf22" d="M 82.5,81.5 C 81.4566,84.0562 79.7899,86.2228 77.5,88C 72.549,87.8129 67.8824,88.9795 63.5,91.5C 63.1667,91.5 62.8333,91.5 62.5,91.5C 62.5,88.8333 62.5,86.1667 62.5,83.5C 66.2588,82.4555 69.9254,81.1222 73.5,79.5C 76.4196,80.5856 79.4196,81.2523 82.5,81.5 Z"/></g>
<g><path style="opacity:1" fill="#c0c9c1" d="M 29.5,82.5 C 29.5,81.8333 29.8333,81.5 30.5,81.5C 31.8068,82.1534 33.1401,82.8201 34.5,83.5C 35.4892,87.1073 35.8226,90.774 35.5,94.5C 34.5,91.1667 33.5,87.8333 32.5,84.5C 31.7095,83.5987 30.7095,82.9321 29.5,82.5 Z"/></g>
<g><path style="opacity:1" fill="#268f35" d="M 43.5,83.5 C 43.8333,83.5 44.1667,83.5 44.5,83.5C 44.5,84.1667 44.8333,84.5 45.5,84.5C 45.5,84.8333 45.5,85.1667 45.5,85.5C 43.6954,86.2371 42.0287,87.2371 40.5,88.5C 39.9839,86.2671 40.9839,84.6004 43.5,83.5 Z"/></g>
<g><path style="opacity:1" fill="#0c2f44" d="M 11.5,61.5 C 10.2498,63.9324 8.74983,66.2657 7,68.5C 4.9808,76.1093 7.14747,82.1093 13.5,86.5C 15.1195,88.2385 17.1195,88.7385 19.5,88C 17.8068,87.1534 16.1401,86.3201 14.5,85.5C 13.2485,83.9991 12.2485,82.3325 11.5,80.5C 11.369,79.7611 11.5357,79.0944 12,78.5C 15.7478,84.9779 21.2478,87.3113 28.5,85.5C 27.8075,84.4822 27.1408,83.4822 26.5,82.5C 26.369,81.7611 26.5357,81.0944 27,80.5C 27.7083,81.3805 28.5416,82.0472 29.5,82.5C 30.7095,82.9321 31.7095,83.5987 32.5,84.5C 32.5,89.1667 32.5,93.8333 32.5,98.5C 33.5,98.5 34.5,98.5 35.5,98.5C 35.1667,99.1667 34.8333,99.8333 34.5,100.5C 32.0035,102.558 32.6702,103.724 36.5,104C 42.5283,104.641 48.5283,104.474 54.5,103.5C 55.0906,104.151 55.7573,104.818 56.5,105.5C 56.3764,106.107 56.0431,106.44 55.5,106.5C 55.5654,106.062 55.3988,105.728 55,105.5C 54.4867,106.527 53.9867,107.527 53.5,108.5C 50.4708,111.4 46.8041,112.734 42.5,112.5C 41.0351,111.263 39.3684,110.263 37.5,109.5C 36.6473,107.107 34.9806,105.774 32.5,105.5C 32.3411,112.596 33.0078,119.596 34.5,126.5C 39.0376,129.751 42.7042,129.085 45.5,124.5C 45.8333,123.833 46.1667,123.167 46.5,122.5C 48.2133,120.15 50.5466,119.15 53.5,119.5C 54.1667,118.167 54.8333,116.833 55.5,115.5C 55.5,116.167 55.8333,116.5 56.5,116.5C 56.5,117.167 56.8333,117.5 57.5,117.5C 57.5,119.167 57.5,120.833 57.5,122.5C 55.5,122.5 53.5,122.5 51.5,122.5C 51.5,123.5 51.5,124.5 51.5,125.5C 50.209,125.263 49.209,125.596 48.5,126.5C 48.1667,127.167 47.8333,127.833 47.5,128.5C 46.9569,128.56 46.6236,128.893 46.5,129.5C 54.8068,130.498 63.1401,130.831 71.5,130.5C 72.4959,130.414 73.3292,130.748 74,131.5C 74.4169,130.244 75.2502,129.577 76.5,129.5C 77.1667,129.833 77.8333,130.167 78.5,130.5C 81.4299,131.299 84.4299,131.632 87.5,131.5C 88.8333,131.833 90.1667,132.167 91.5,132.5C 90.7095,133.401 89.7095,134.068 88.5,134.5C 84.8333,134.5 81.1667,134.5 77.5,134.5C 77.1583,133.662 76.4916,133.328 75.5,133.5C 73.5648,132.85 71.5648,132.517 69.5,132.5C 71.3188,139.147 75.6521,141.314 82.5,139C 83.9007,138.59 85.234,138.09 86.5,137.5C 90.0536,136.231 93.0536,134.231 95.5,131.5C 96.1667,130.833 96.8333,130.167 97.5,129.5C 102.35,129.075 106.35,127.075 109.5,123.5C 111.587,122.415 112.92,120.749 113.5,118.5C 114.167,118.167 114.833,117.833 115.5,117.5C 115.821,119.048 116.821,119.715 118.5,119.5C 113.907,125.593 108.24,130.426 101.5,134C 95.2523,136.457 89.2523,139.457 83.5,143C 79.0998,143.978 74.9331,143.478 71,141.5C 70.51,142.793 70.3433,144.127 70.5,145.5C 69.375,146.348 69.375,147.348 70.5,148.5C 68.629,148.141 67.129,147.141 66,145.5C 64.7789,149.127 63.1122,149.127 61,145.5C 60.51,146.793 60.3433,148.127 60.5,149.5C 59.5,149.5 58.5,149.5 57.5,149.5C 57.6602,147.801 57.4935,146.134 57,144.5C 56.3632,146.303 55.1965,147.636 53.5,148.5C 52.8076,147.975 52.3076,147.308 52,146.5C 51.1841,147.823 50.0174,148.489 48.5,148.5C 48.5,147.5 48.5,146.5 48.5,145.5C 46.6136,144.935 44.9469,143.935 43.5,142.5C 44.8848,141.449 45.8848,140.116 46.5,138.5C 11.9803,123.803 -2.51974,97.8034 3,60.5C 4.23828,56.3649 5.73828,52.3649 7.5,48.5C 9.06818,46.0688 10.5682,46.0688 12,48.5C 12.1402,50.5213 12.3068,52.3547 12.5,54C 11.5509,54.6172 10.7175,54.4506 10,53.5C 9.17294,54.6621 8.3396,55.8288 7.5,57C 7.83333,57.5 8.16667,58 8.5,58.5C 9.16667,57.8333 9.83333,57.1667 10.5,56.5C 10.8333,56.8333 11.1667,57.1667 11.5,57.5C 10.6371,58.7264 10.6371,60.0597 11.5,61.5 Z M 77.5,134.5 C 81.1667,134.5 84.8333,134.5 88.5,134.5C 86.5,135.167 84.5,135.833 82.5,136.5C 80.6943,135.976 79.0276,135.309 77.5,134.5 Z"/></g>
<g><path style="opacity:1" fill="#35862e" d="M 14.5,85.5 C 16.1401,86.3201 17.8068,87.1534 19.5,88C 17.1195,88.7385 15.1195,88.2385 13.5,86.5C 14.1667,86.5 14.5,86.1667 14.5,85.5 Z"/></g>
<g><path style="opacity:1" fill="#369d2f" d="M 56.5,85.5 C 56.5,86.5 56.5,87.5 56.5,88.5C 51.3448,89.4122 46.6782,91.4122 42.5,94.5C 40.8947,95.9687 40.3947,95.6354 41,93.5C 43.3256,91.9343 45.4922,90.2676 47.5,88.5C 50.4061,87.2134 53.4061,86.2134 56.5,85.5 Z"/></g>
<g><path style="opacity:1" fill="#e7f7f8" d="M 71.5,96.5 C 72.7562,96.5386 73.7562,96.0386 74.5,95C 72.8333,94.6667 71.1667,94.3333 69.5,94C 72.0804,92.8555 74.7471,92.0222 77.5,91.5C 81.8131,90.6736 85.9798,89.3403 90,87.5C 91.7215,87.6107 91.8882,88.1107 90.5,89C 85.9448,92.445 80.9448,95.1117 75.5,97C 73.9343,97.765 72.6009,97.5983 71.5,96.5 Z"/></g>
<g><path style="opacity:1" fill="#24b7e1" d="M 113.5,74.5 C 113.5,75.1667 113.5,75.8333 113.5,76.5C 109.827,77.7076 109.66,79.3743 113,81.5C 113.923,87.1055 113.423,92.4388 111.5,97.5C 110.92,93.8581 110.42,90.1914 110,86.5C 109.208,89.1064 107.708,91.1064 105.5,92.5C 104.177,91.9466 102.844,92.4466 101.5,94C 102.094,94.4643 102.761,94.631 103.5,94.5C 102.974,96.2303 101.974,97.5637 100.5,98.5C 100.44,97.9569 100.107,97.6236 99.5,97.5C 98.1401,98.1799 96.8068,98.8466 95.5,99.5C 94.9517,96.9162 93.285,95.9162 90.5,96.5C 93.263,94.9202 95.9297,93.0869 98.5,91C 96.5975,90.8008 95.0975,89.9675 94,88.5C 90.5981,91.0837 87.4315,93.7504 84.5,96.5C 79.6354,98.0409 74.6354,98.7076 69.5,98.5C 69.8333,97.5 70.5,96.8333 71.5,96.5C 72.6009,97.5983 73.9343,97.765 75.5,97C 80.9448,95.1117 85.9448,92.445 90.5,89C 91.8882,88.1107 91.7215,87.6107 90,87.5C 85.9798,89.3403 81.8131,90.6736 77.5,91.5C 76.6879,90.0069 75.3545,89.3402 73.5,89.5C 70.1985,90.3797 66.8651,91.0463 63.5,91.5C 67.8824,88.9795 72.549,87.8129 77.5,88C 79.7899,86.2228 81.4566,84.0562 82.5,81.5C 93.3832,81.4107 103.717,79.0774 113.5,74.5 Z"/></g>
<g><path style="opacity:1" fill="#29b749" d="M 90.5,96.5 C 88.1667,97.1667 85.8333,97.8333 83.5,98.5C 83.8333,97.8333 84.1667,97.1667 84.5,96.5C 87.4315,93.7504 90.5981,91.0837 94,88.5C 95.0975,89.9675 96.5975,90.8008 98.5,91C 95.9297,93.0869 93.263,94.9202 90.5,96.5 Z"/></g>
<g><path style="opacity:1" fill="#26b76b" d="M 105.5,92.5 C 105.167,93.5 104.5,94.1667 103.5,94.5C 102.761,94.631 102.094,94.4643 101.5,94C 102.844,92.4466 104.177,91.9466 105.5,92.5 Z"/></g>
<g><path style="opacity:1" fill="#aebdc2" d="M 24.5,92.5 C 26.337,92.6395 26.6704,93.3061 25.5,94.5C 24.7025,94.0431 24.3691,93.3764 24.5,92.5 Z"/></g>
<g><path style="opacity:1" fill="#7d7558" d="M 32.5,84.5 C 33.5,87.8333 34.5,91.1667 35.5,94.5C 36.1667,95.1667 36.8333,95.8333 37.5,96.5C 37.5,97.8333 36.8333,98.5 35.5,98.5C 34.5,98.5 33.5,98.5 32.5,98.5C 32.5,93.8333 32.5,89.1667 32.5,84.5 Z"/></g>
<g><path style="opacity:1" fill="#e5efe2" d="M 15.5,95.5 C 21.5758,96.6903 25.9091,100.024 28.5,105.5C 24.3083,101.913 19.975,98.5798 15.5,95.5 Z"/></g>
<g><path style="opacity:1" fill="#e9f3f4" d="M 113.5,76.5 C 116.055,83.445 116.055,90.445 113.5,97.5C 114.002,98.521 114.668,98.6877 115.5,98C 121.254,94.8773 126.087,90.7107 130,85.5C 129.78,87.9631 128.946,90.2965 127.5,92.5C 123.705,95.5695 119.705,98.4028 115.5,101C 118.333,101.446 120.999,100.946 123.5,99.5C 125.463,98.0401 127.296,96.3734 129,94.5C 129.167,94.8333 129.333,95.1667 129.5,95.5C 124.083,105.381 115.749,111.047 104.5,112.5C 96.8924,112.741 96.8924,111.574 104.5,109C 105.5,108 106.5,107 107.5,106C 100.786,107.739 94.119,109.573 87.5,111.5C 86.1667,111.5 84.8333,111.5 83.5,111.5C 82.7611,111.631 82.0944,111.464 81.5,111C 91.1261,108.458 100.459,105.125 109.5,101C 110.823,100.184 111.489,99.0174 111.5,97.5C 113.423,92.4388 113.923,87.1055 113,81.5C 109.66,79.3743 109.827,77.7076 113.5,76.5 Z"/></g>
<g><path style="opacity:1" fill="#39b8de" d="M 127.5,92.5 C 126.167,94.8333 124.833,97.1667 123.5,99.5C 120.999,100.946 118.333,101.446 115.5,101C 119.705,98.4028 123.705,95.5695 127.5,92.5 Z"/></g>
<g><path style="opacity:1" fill="#0a2c47" d="M 56.5,5.5 C 56.5569,6.60895 56.8902,7.60895 57.5,8.5C 57.5,43.8333 57.5,79.1667 57.5,114.5C 58.5,114.5 59.5,114.5 60.5,114.5C 61.5,114.5 62.5,114.5 63.5,114.5C 63.8333,114.5 64.1667,114.5 64.5,114.5C 64.5,114.833 64.5,115.167 64.5,115.5C 64.5,116.833 64.5,118.167 64.5,119.5C 65.8734,119.343 67.2068,119.51 68.5,120C 70.7343,121.75 73.0676,123.25 75.5,124.5C 75.9175,125.222 76.5842,125.722 77.5,126C 80.8168,126.498 84.1501,126.665 87.5,126.5C 88.4916,126.328 89.1583,126.662 89.5,127.5C 88.609,128.11 87.609,128.443 86.5,128.5C 82.9581,128.187 79.6248,128.521 76.5,129.5C 75.2502,129.577 74.4169,130.244 74,131.5C 73.3292,130.748 72.4959,130.414 71.5,130.5C 71.5,130.167 71.5,129.833 71.5,129.5C 72.1026,126.862 70.7693,125.529 67.5,125.5C 67.5,124.5 67.5,123.5 67.5,122.5C 65.8333,122.5 64.1667,122.5 62.5,122.5C 62.5,120.5 62.5,118.5 62.5,116.5C 60.5,116.5 58.5,116.5 56.5,116.5C 55.8333,116.5 55.5,116.167 55.5,115.5C 55.5,112.5 55.5,109.5 55.5,106.5C 56.0431,106.44 56.3764,106.107 56.5,105.5C 55.7573,104.818 55.0906,104.151 54.5,103.5C 55.0431,103.44 55.3764,103.107 55.5,102.5C 54.624,101.749 53.624,101.249 52.5,101C 46.5092,100.501 40.5092,100.334 34.5,100.5C 34.8333,99.8333 35.1667,99.1667 35.5,98.5C 36.8333,98.5 37.5,97.8333 37.5,96.5C 37.369,95.7611 37.5357,95.0944 38,94.5C 39.3048,98.1234 40.8048,98.1234 42.5,94.5C 46.6782,91.4122 51.3448,89.4122 56.5,88.5C 56.5,87.5 56.5,86.5 56.5,85.5C 56.5,83.8333 56.5,82.1667 56.5,80.5C 56.5,76.1667 56.5,71.8333 56.5,67.5C 56.8168,63.2984 56.4834,59.2984 55.5,55.5C 54.234,54.9101 52.9007,54.4101 51.5,54C 52.056,53.6174 52.3893,53.1174 52.5,52.5C 53.1451,51.1882 54.1451,50.1882 55.5,49.5C 56.4959,43.5368 56.8293,37.5368 56.5,31.5C 56.67,30.1779 56.3366,29.0113 55.5,28C 52.1832,27.5017 48.8499,27.335 45.5,27.5C 41.8724,26.9787 41.7057,25.6454 45,23.5C 46.5971,24.8847 48.4305,25.5514 50.5,25.5C 50.5,24.5 50.5,23.5 50.5,22.5C 50.9175,21.7784 51.5842,21.2784 52.5,21C 51.944,20.6174 51.6107,20.1174 51.5,19.5C 52.5981,18.603 52.5981,17.7697 51.5,17C 52.428,16.6121 53.0946,15.9454 53.5,15C 50.6105,13.1082 50.9438,12.2749 54.5,12.5C 53.9898,9.61221 54.6565,7.27887 56.5,5.5 Z"/></g>
<g><path style="opacity:1" fill="#0a6fb1" d="M 54.5,89.5 C 56.3878,91.9878 57.0545,94.9878 56.5,98.5C 52.4264,98.2989 48.4264,97.6322 44.5,96.5C 47.8998,94.1444 51.2331,91.8111 54.5,89.5 Z"/></g>
<g><path style="opacity:1" fill="#14a4e4" d="M 77.5,91.5 C 74.7471,92.0222 72.0804,92.8555 69.5,94C 71.1667,94.3333 72.8333,94.6667 74.5,95C 73.7562,96.0386 72.7562,96.5386 71.5,96.5C 70.5,96.8333 69.8333,97.5 69.5,98.5C 67.8008,98.3398 66.1341,98.5065 64.5,99C 66.7017,100.022 69.0351,100.522 71.5,100.5C 75.5646,100.15 79.5646,99.4829 83.5,98.5C 85.8333,97.8333 88.1667,97.1667 90.5,96.5C 93.285,95.9162 94.9517,96.9162 95.5,99.5C 88.6561,102.559 81.6561,105.226 74.5,107.5C 74.67,106.178 74.3366,105.011 73.5,104C 69.8484,103.501 66.1817,103.335 62.5,103.5C 62.5,99.5 62.5,95.5 62.5,91.5C 62.8333,91.5 63.1667,91.5 63.5,91.5C 66.8651,91.0463 70.1985,90.3797 73.5,89.5C 75.3545,89.3402 76.6879,90.0069 77.5,91.5 Z"/></g>
<g><path style="opacity:1" fill="#0a4a6e" d="M 84.5,96.5 C 84.1667,97.1667 83.8333,97.8333 83.5,98.5C 79.5646,99.4829 75.5646,100.15 71.5,100.5C 69.0351,100.522 66.7017,100.022 64.5,99C 66.1341,98.5065 67.8008,98.3398 69.5,98.5C 74.6354,98.7076 79.6354,98.0409 84.5,96.5 Z"/></g>
<g><path style="opacity:1" fill="#1dabe2" d="M 111.5,97.5 C 111.489,99.0174 110.823,100.184 109.5,101C 100.459,105.125 91.1261,108.458 81.5,111C 82.0944,111.464 82.7611,111.631 83.5,111.5C 81.0521,112.473 78.3854,112.806 75.5,112.5C 84.2823,108.737 92.6157,104.07 100.5,98.5C 101.974,97.5637 102.974,96.2303 103.5,94.5C 104.5,94.1667 105.167,93.5 105.5,92.5C 107.708,91.1064 109.208,89.1064 110,86.5C 110.42,90.1914 110.92,93.8581 111.5,97.5 Z"/></g>
<g><path style="opacity:1" fill="#92a3ab" d="M 34.5,100.5 C 40.5092,100.334 46.5092,100.501 52.5,101C 53.624,101.249 54.624,101.749 55.5,102.5C 55.3764,103.107 55.0431,103.44 54.5,103.5C 48.5283,104.474 42.5283,104.641 36.5,104C 32.6702,103.724 32.0035,102.558 34.5,100.5 Z"/></g>
<g><path style="opacity:1" fill="#425b6d" d="M 39.5,102.5 C 42.3553,101.197 45.3553,101.197 48.5,102.5C 45.463,103.741 42.463,103.741 39.5,102.5 Z"/></g>
<g><path style="opacity:1" fill="#4ebedf" d="M 37.5,107.5 C 42.3158,106.35 47.3158,106.184 52.5,107C 47.6397,111.48 42.6397,111.647 37.5,107.5 Z"/></g>
<g><path style="opacity:1" fill="#0a7cc2" d="M 62.5,103.5 C 66.1817,103.335 69.8484,103.501 73.5,104C 74.3366,105.011 74.67,106.178 74.5,107.5C 70.5007,108.5 66.5007,109.5 62.5,110.5C 62.5,108.167 62.5,105.833 62.5,103.5 Z"/></g>
<g><path style="opacity:1" fill="#2aad30" d="M 100.5,98.5 C 92.6157,104.07 84.2823,108.737 75.5,112.5C 71.9155,113.583 68.2488,114.249 64.5,114.5C 64.1667,114.5 63.8333,114.5 63.5,114.5C 62.7659,113.292 62.4326,111.959 62.5,110.5C 66.5007,109.5 70.5007,108.5 74.5,107.5C 81.6561,105.226 88.6561,102.559 95.5,99.5C 96.8068,98.8466 98.1401,98.1799 99.5,97.5C 100.107,97.6236 100.44,97.9569 100.5,98.5 Z"/></g>
<g><path style="opacity:1" fill="#45a8d9" d="M 104.5,112.5 C 100.658,113.539 96.6579,113.539 92.5,112.5C 92.1667,112.5 91.8333,112.5 91.5,112.5C 90.4324,111.566 89.099,111.232 87.5,111.5C 94.119,109.573 100.786,107.739 107.5,106C 106.5,107 105.5,108 104.5,109C 96.8924,111.574 96.8924,112.741 104.5,112.5 Z"/></g>
<g><path style="opacity:1" fill="#50bc17" d="M 15.5,95.5 C 19.975,98.5798 24.3083,101.913 28.5,105.5C 29.5552,108.073 29.7218,110.739 29,113.5C 26.0496,108.882 22.7162,104.548 19,100.5C 20.8199,107.794 24.4866,114.128 30,119.5C 31.084,123.727 29.9174,124.894 26.5,123C 18.3657,115.397 14.699,106.23 15.5,95.5 Z"/></g>
<g><path style="opacity:1" fill="#12bcef" d="M 53.5,108.5 C 53.5,112.167 53.5,115.833 53.5,119.5C 50.5466,119.15 48.2133,120.15 46.5,122.5C 44.5659,120.24 42.8992,117.74 41.5,115C 41.8836,114.049 42.2169,113.216 42.5,112.5C 46.8041,112.734 50.4708,111.4 53.5,108.5 Z"/></g>
<g><path style="opacity:1" fill="#0f91d8" d="M 83.5,111.5 C 84.8333,111.5 86.1667,111.5 87.5,111.5C 89.099,111.232 90.4324,111.566 91.5,112.5C 82.956,116.487 73.956,117.487 64.5,115.5C 64.5,115.167 64.5,114.833 64.5,114.5C 68.2488,114.249 71.9155,113.583 75.5,112.5C 78.3854,112.806 81.0521,112.473 83.5,111.5 Z"/></g>
<g><path style="opacity:1" fill="#bedde1" d="M 55.5,106.5 C 55.5,109.5 55.5,112.5 55.5,115.5C 54.8333,116.833 54.1667,118.167 53.5,119.5C 53.5,115.833 53.5,112.167 53.5,108.5C 53.9867,107.527 54.4867,106.527 55,105.5C 55.3988,105.728 55.5654,106.062 55.5,106.5 Z"/></g>
<g><path style="opacity:1" fill="#0973b8" d="M 91.5,112.5 C 91.8333,112.5 92.1667,112.5 92.5,112.5C 92.4142,113.496 92.7476,114.329 93.5,115C 87.3041,116.973 80.9707,118.306 74.5,119C 75.9047,120.269 77.5714,120.769 79.5,120.5C 79.6107,121.117 79.944,121.617 80.5,122C 78.5087,122.374 76.842,123.207 75.5,124.5C 73.0676,123.25 70.7343,121.75 68.5,120C 67.2068,119.51 65.8734,119.343 64.5,119.5C 64.5,118.167 64.5,116.833 64.5,115.5C 73.956,117.487 82.956,116.487 91.5,112.5 Z"/></g>
<g><path style="opacity:1" fill="#06a3e6" d="M 37.5,109.5 C 39.3684,110.263 41.0351,111.263 42.5,112.5C 42.2169,113.216 41.8836,114.049 41.5,115C 42.8992,117.74 44.5659,120.24 46.5,122.5C 46.1667,123.167 45.8333,123.833 45.5,124.5C 42.9317,123.426 41.2651,121.426 40.5,118.5C 39.6431,117.575 38.6431,116.908 37.5,116.5C 36.596,115.791 36.2627,114.791 36.5,113.5C 36.2322,111.901 36.5655,110.568 37.5,109.5 Z"/></g>
<g><path style="opacity:1" fill="#ccddc7" d="M 115.5,117.5 C 114.833,117.833 114.167,118.167 113.5,118.5C 109.5,120.167 105.5,121.833 101.5,123.5C 105.325,120.418 109.658,118.085 114.5,116.5C 115.107,116.624 115.44,116.957 115.5,117.5 Z"/></g>
<g><path style="opacity:1" fill="#0e78b5" d="M 37.5,109.5 C 36.5655,110.568 36.2322,111.901 36.5,113.5C 35.8525,111.502 35.0192,109.502 34,107.5C 33.7906,113.874 34.2906,120.208 35.5,126.5C 37.288,126.785 38.9547,126.452 40.5,125.5C 38.8954,122.686 37.8954,119.686 37.5,116.5C 38.6431,116.908 39.6431,117.575 40.5,118.5C 41.2651,121.426 42.9317,123.426 45.5,124.5C 42.7042,129.085 39.0376,129.751 34.5,126.5C 33.0078,119.596 32.3411,112.596 32.5,105.5C 34.9806,105.774 36.6473,107.107 37.5,109.5 Z"/></g>
<g><path style="opacity:1" fill="#68bf3b" d="M 57.5,117.5 C 60.9103,117.384 62.2436,119.05 61.5,122.5C 60.1667,122.5 58.8333,122.5 57.5,122.5C 57.5,120.833 57.5,119.167 57.5,117.5 Z"/></g>
<g><path style="opacity:1" fill="#0a8dd2" d="M 87.5,126.5 C 84.1501,126.665 80.8168,126.498 77.5,126C 76.5842,125.722 75.9175,125.222 75.5,124.5C 76.842,123.207 78.5087,122.374 80.5,122C 79.944,121.617 79.6107,121.117 79.5,120.5C 88.4537,120.152 97.1204,118.652 105.5,116C 99.5688,119.793 93.5688,123.293 87.5,126.5 Z"/></g>
<g><path style="opacity:1" fill="#71d123" d="M 113.5,118.5 C 112.92,120.749 111.587,122.415 109.5,123.5C 105.923,123.205 102.757,124.205 100,126.5C 99.6012,126.272 99.4346,125.938 99.5,125.5C 99.8333,124.5 100.5,123.833 101.5,123.5C 105.5,121.833 109.5,120.167 113.5,118.5 Z"/></g>
<g><path style="opacity:1" fill="#073050" d="M 36.5,113.5 C 36.2627,114.791 36.596,115.791 37.5,116.5C 37.8954,119.686 38.8954,122.686 40.5,125.5C 38.9547,126.452 37.288,126.785 35.5,126.5C 34.2906,120.208 33.7906,113.874 34,107.5C 35.0192,109.502 35.8525,111.502 36.5,113.5 Z"/></g>
<g><path style="opacity:1" fill="#c9d4d3" d="M 56.5,116.5 C 58.5,116.5 60.5,116.5 62.5,116.5C 62.5,118.5 62.5,120.5 62.5,122.5C 64.1667,122.5 65.8333,122.5 67.5,122.5C 67.5,123.5 67.5,124.5 67.5,125.5C 70.7693,125.529 72.1026,126.862 71.5,129.5C 71.1667,129.5 70.8333,129.5 70.5,129.5C 70.1961,128.85 69.8627,128.183 69.5,127.5C 62.5316,126.503 55.5316,126.17 48.5,126.5C 49.209,125.596 50.209,125.263 51.5,125.5C 51.5,124.5 51.5,123.5 51.5,122.5C 53.5,122.5 55.5,122.5 57.5,122.5C 58.8333,122.5 60.1667,122.5 61.5,122.5C 62.2436,119.05 60.9103,117.384 57.5,117.5C 56.8333,117.5 56.5,117.167 56.5,116.5 Z"/></g>
<g><path style="opacity:1" fill="#0b2b42" d="M 52.5,123.5 C 56.8839,123.174 61.2172,123.508 65.5,124.5C 63.3333,124.833 61.1667,125.167 59,125.5C 56.3897,125.467 54.223,124.8 52.5,123.5 Z"/></g>
<g><path style="opacity:1" fill="#36a61d" d="M 109.5,123.5 C 106.35,127.075 102.35,129.075 97.5,129.5C 97.0618,129.565 96.7284,129.399 96.5,129C 97.6364,127.855 98.6364,126.688 99.5,125.5C 99.4346,125.938 99.6012,126.272 100,126.5C 102.757,124.205 105.923,123.205 109.5,123.5 Z"/></g>
<g><path style="opacity:1" fill="#7cd33a" d="M 48.5,126.5 C 55.5316,126.17 62.5316,126.503 69.5,127.5C 69.8627,128.183 70.1961,128.85 70.5,129.5C 62.6484,129.825 54.9818,129.492 47.5,128.5C 47.8333,127.833 48.1667,127.167 48.5,126.5 Z"/></g>
<g><path style="opacity:1" fill="#6a808b" d="M 76.5,129.5 C 79.6248,128.521 82.9581,128.187 86.5,128.5C 83.8333,129.167 81.1667,129.833 78.5,130.5C 77.8333,130.167 77.1667,129.833 76.5,129.5 Z"/></g>
<g><path style="opacity:1" fill="#378722" d="M 47.5,128.5 C 54.9818,129.492 62.6484,129.825 70.5,129.5C 70.8333,129.5 71.1667,129.5 71.5,129.5C 71.5,129.833 71.5,130.167 71.5,130.5C 63.1401,130.831 54.8068,130.498 46.5,129.5C 46.6236,128.893 46.9569,128.56 47.5,128.5 Z"/></g>
<g><path style="opacity:1" fill="#e5eaea" d="M 89.5,127.5 C 90.552,127.351 91.552,127.517 92.5,128C 91.0445,129.626 89.3779,130.792 87.5,131.5C 84.4299,131.632 81.4299,131.299 78.5,130.5C 81.1667,129.833 83.8333,129.167 86.5,128.5C 87.609,128.443 88.609,128.11 89.5,127.5 Z"/></g>
<g><path style="opacity:1" fill="#498140" d="M 59.5,132.5 C 60.8333,132.5 62.1667,132.5 63.5,132.5C 64.0384,136.357 63.0384,139.691 60.5,142.5C 59.513,139.232 59.1796,135.898 59.5,132.5 Z"/></g>
<g><path style="opacity:0.998" fill="#35a919" d="M 75.5,133.5 C 75.8417,134.338 76.5084,134.672 77.5,134.5C 79.0276,135.309 80.6943,135.976 82.5,136.5C 84.099,136.232 85.4324,136.566 86.5,137.5C 85.234,138.09 83.9007,138.59 82.5,139C 75.6521,141.314 71.3188,139.147 69.5,132.5C 71.5648,132.517 73.5648,132.85 75.5,133.5 Z"/></g>
<g><path style="opacity:0.502" fill="#41754e" d="M 95.5,131.5 C 93.0536,134.231 90.0536,136.231 86.5,137.5C 85.4324,136.566 84.099,136.232 82.5,136.5C 84.5,135.833 86.5,135.167 88.5,134.5C 89.7095,134.068 90.7095,133.401 91.5,132.5C 92.7079,131.766 94.0413,131.433 95.5,131.5 Z"/></g>
<g><path style="opacity:1" fill="#2f6244" d="M 51.5,132.5 C 53.5,132.5 55.5,132.5 57.5,132.5C 57.6653,136.182 57.4986,139.848 57,143.5C 55.561,141.986 54.061,141.653 52.5,142.5C 51.1166,139.924 50.2833,140.258 50,143.5C 49.8333,142.167 49.6667,140.833 49.5,139.5C 50.0211,137.076 50.6877,134.743 51.5,132.5 Z"/></g>
<g><path style="opacity:1" fill="#4f972b" d="M 66.5,135.5 C 68.7213,137.33 68.8879,139.33 67,141.5C 66.5045,139.527 66.3379,137.527 66.5,135.5 Z"/></g>
<g><path style="opacity:0.141" fill="#078bc5" d="M 20.5,145.5 C 22.3117,145.771 23.9783,146.438 25.5,147.5C 23.5,148.833 21.5,148.833 19.5,147.5C 19.8627,146.817 20.1961,146.15 20.5,145.5 Z"/></g>
<g><path style="opacity:0.259" fill="#0795d2" d="M 48.5,145.5 C 48.5,146.5 48.5,147.5 48.5,148.5C 41.3233,148.96 34.3233,148.46 27.5,147C 34.3233,145.54 41.3233,145.04 48.5,145.5 Z"/></g>
<g><path style="opacity:0.169" fill="#0798d6" d="M 70.5,145.5 C 80.1724,145.334 89.8391,145.5 99.5,146C 100.308,146.308 100.975,146.808 101.5,147.5C 91.1881,148.499 80.8548,148.832 70.5,148.5C 69.375,147.348 69.375,146.348 70.5,145.5 Z"/></g>
<g><path style="opacity:0.004" fill="#0b80b0" d="M 104.5,146.5 C 106.337,146.639 106.67,147.306 105.5,148.5C 104.702,148.043 104.369,147.376 104.5,146.5 Z"/></g>
</svg>
