<svg version="1.2" xmlns="http://www.w3.org/2000/svg" viewBox="0 0 171 36" width="171" height="36"><defs><linearGradient id="P" gradientUnits="userSpaceOnUse"/><linearGradient id="g1" x2="1" href="#P" gradientTransform="matrix(0,30,-30,0,15,3)"><stop stop-color="#877eff"/><stop offset=".46" stop-color="#685dff"/><stop offset="1" stop-color="#3121ff"/></linearGradient></defs><style>.a{fill:url(#g1)}.b{fill:#fff}</style><path fill-rule="evenodd" class="a" d="m30 18c0 8.3-6.7 15-15 15-8.3 0-15-6.7-15-15 0-8.3 6.7-15 15-15 8.3 0 15 6.7 15 15zm-15-12.8c-7.1 0-12.8 5.7-12.8 12.8 0 7.1 5.7 12.8 12.8 12.8 7.1 0 12.8-5.7 12.8-12.8 0-7.1-5.7-12.8-12.8-12.8zm8.3 6.1c0 0.8-0.7 1.5-1.6 1.5-0.8 0-1.5-0.7-1.5-1.5 0-0.9 0.7-1.6 1.5-1.6 0.9 0 1.6 0.7 1.6 1.6zm-10.1 0.1c3.7-1 7.4 1.2 8.4 4.8 1 3.7-1.2 7.4-4.8 8.4-3.7 1-7.4-1.2-8.4-4.8-1-3.7 1.2-7.4 4.8-8.4zm-2.7 7.8c0.7 2.5 3.2 4 5.7 3.3 2.5-0.7 4-3.2 3.3-5.7-0.7-2.5-3.2-4-5.7-3.3-2.5 0.7-4 3.2-3.3 5.7z"/><path fill-rule="evenodd" class="b" d="m46.7 28.4q-2.3 0-4-0.8-1.8-0.8-2.7-2.4-1-1.5-1-3.6v-0.8h3.6v0.8q0 1.7 1.1 2.6 1.1 0.9 3 0.9 2 0 2.9-0.7 1-0.8 1-2 0-0.8-0.5-1.3-0.5-0.5-1.4-0.8-0.9-0.4-2.1-0.7l-0.7-0.1q-2-0.5-3.5-1.1-1.4-0.7-2.2-1.9-0.8-1.1-0.8-2.9 0-1.8 0.9-3.1 0.8-1.3 2.4-2 1.6-0.7 3.7-0.7 2.1 0 3.8 0.7 1.6 0.8 2.6 2.2 0.9 1.4 0.9 3.6v0.8h-3.7v-0.8q0-1.2-0.4-1.9-0.4-0.7-1.3-1-0.8-0.3-1.9-0.3-1.7 0-2.5 0.6-0.8 0.7-0.8 1.8 0 0.7 0.4 1.2 0.4 0.5 1.1 0.9 0.8 0.3 2 0.6l0.6 0.1q2.1 0.4 3.7 1.2 1.6 0.7 2.5 1.8 0.8 1.2 0.8 3 0 1.8-0.9 3.2-0.9 1.3-2.6 2.1-1.7 0.8-4 0.8zm9.6-0.4v-14h3.5v1.8h0.5q0.3-0.7 1.3-1.4 0.9-0.7 2.8-0.7 1.6 0 2.8 0.8 1.3 0.7 2 2.1 0.7 1.3 0.7 3v8.4h-3.6v-8.1q0-1.6-0.8-2.4-0.8-0.8-2.2-0.8-1.6 0-2.6 1.1-0.9 1.1-0.9 3.1v7.1zm21 0.4q-1.5 0-2.7-0.5-1.2-0.6-1.9-1.5-0.7-1.1-0.7-2.5 0-1.4 0.7-2.4 0.7-1 1.9-1.5 1.3-0.5 2.8-0.5h3.9v-0.8q0-1-0.6-1.6-0.7-0.6-2-0.6-1.3 0-2 0.6-0.6 0.6-0.8 1.5l-3.3-1.1q0.3-1 1.1-1.9 0.7-0.9 2-1.5 1.2-0.5 3-0.5 2.8 0 4.4 1.4 1.6 1.4 1.6 4v5.2q0 0.9 0.8 0.9h1.2v2.9h-2.4q-1.1 0-1.7-0.5-0.7-0.5-0.7-1.4h-0.6q-0.1 0.3-0.5 0.9-0.4 0.5-1.2 1-0.9 0.4-2.3 0.4zm0.6-2.9q1.5 0 2.4-0.8 1-0.9 1-2.2v-0.3h-3.6q-1 0-1.6 0.4-0.5 0.4-0.5 1.2 0 0.8 0.6 1.2 0.6 0.5 1.7 0.5zm10.5 8.2v-19.7h3.5v1.7h0.5q0.5-0.8 1.5-1.5 1-0.6 2.9-0.6 1.7 0 3.2 0.8 1.4 0.8 2.3 2.5 0.9 1.6 0.9 3.9v0.4q0 2.3-0.9 3.9-0.9 1.6-2.3 2.5-1.5 0.8-3.2 0.8-1.2 0-2.1-0.3-0.9-0.3-1.4-0.8-0.5-0.4-0.8-0.9h-0.5v7.3zm7.3-8.4q1.7 0 2.8-1.1 1.1-1 1.1-3.1v-0.3q0-2-1.1-3-1.1-1.1-2.8-1.1-1.6 0-2.7 1.1-1.1 1-1.1 3v0.3q0 2.1 1.1 3.1 1.1 1.1 2.7 1.1zm9.2-4.3v-0.4q0-2.2 0.9-3.8 0.8-1.6 2.3-2.4 1.4-0.8 3.2-0.8 1.9 0 2.9 0.7 1 0.6 1.4 1.4h0.5v-1.7h3.5v16.5q0 1.4-0.8 2.3-0.9 0.9-2.3 0.9h-9.4v-3.2h8.2q0.8 0 0.8-0.8v-3.7h-0.5q-0.3 0.5-0.8 1-0.5 0.4-1.4 0.7-0.8 0.4-2.1 0.4-1.8 0-3.2-0.9-1.5-0.8-2.3-2.4-0.9-1.6-0.9-3.8zm7.4 3.9q1.6 0 2.7-1 1.1-1 1.1-2.9v-0.3q0-1.9-1.1-3-1-1-2.7-1-1.7 0-2.8 1-1.1 1.1-1.1 3v0.3q0 1.9 1.1 2.9 1.1 1 2.8 1zm10.4 3.1v-14h3.5v1.6h0.6q0.3-0.9 1-1.3 0.7-0.4 1.7-0.4h1.7v3.2h-1.8q-1.3 0-2.2 0.7-0.9 0.7-0.9 2.2v8zm14.4 0.4q-1.5 0-2.7-0.5-1.2-0.6-1.9-1.5-0.7-1.1-0.7-2.5 0-1.4 0.7-2.4 0.7-1 1.9-1.5 1.3-0.5 2.9-0.5h3.8v-0.8q0-1-0.6-1.6-0.6-0.6-2-0.6-1.3 0-2 0.6-0.6 0.6-0.8 1.5l-3.3-1.1q0.3-1 1.1-1.9 0.7-0.9 2-1.5 1.3-0.5 3.1-0.5 2.7 0 4.3 1.4 1.7 1.4 1.7 4v5.2q0 0.9 0.7 0.9h1.2v2.9h-2.4q-1 0-1.7-0.5-0.7-0.5-0.7-1.4h-0.5q-0.2 0.3-0.5 0.9-0.4 0.5-1.3 1-0.8 0.4-2.3 0.4zm0.6-2.9q1.5 0 2.4-0.8 1-0.9 1-2.2v-0.3h-3.6q-1 0-1.5 0.4-0.6 0.4-0.6 1.2 0 0.8 0.6 1.2 0.6 0.5 1.7 0.5zm10.5 2.5v-14h3.5v1.5h0.5q0.4-0.7 1.3-1.2 0.8-0.6 2.2-0.6 1.5 0 2.4 0.6 0.9 0.6 1.4 1.5h0.5q0.5-0.9 1.4-1.5 0.8-0.6 2.4-0.6 1.3 0 2.4 0.6 1.1 0.6 1.7 1.7 0.6 1.1 0.6 2.8v9.2h-3.5v-9q0-1.1-0.6-1.7-0.6-0.6-1.7-0.6-1.2 0-1.9 0.8-0.6 0.8-0.6 2.2v8.3h-3.6v-9q0-1.1-0.6-1.7-0.6-0.6-1.7-0.6-1.2 0-1.9 0.8-0.6 0.8-0.6 2.2v8.3z"/></svg>